<svg id="b8d60dbb-f3d6-4f99-8372-29f87026d5bd" data-name="Warstwa 2" xmlns="http://www.w3.org/2000/svg" xmlns:xlink="http://www.w3.org/1999/xlink" viewBox="0 0 1280 1056.49175"><defs><style>.b6eeaf21-078f-4709-b437-8cd12416b278{fill:url(#b45c11b1-df0d-409a-8afd-a205f3f6c5ab);}.b22f0e3f-ecc2-48d0-949a-2ad853a23fce{fill:url(#e3fad7e2-94bf-4da9-8a6b-3be299c634e3);}</style><linearGradient id="b45c11b1-df0d-409a-8afd-a205f3f6c5ab" x1="454.71205" y1="321.20564" x2="1368.46545" y2="848.76141" gradientUnits="userSpaceOnUse"><stop offset="0" stop-color="#00d2ff"/><stop offset="1" stop-color="#3a47d5"/></linearGradient><linearGradient id="e3fad7e2-94bf-4da9-8a6b-3be299c634e3" x1="-41.79693" y1="119.16458" x2="958.83343" y2="696.87879" xlink:href="#b45c11b1-df0d-409a-8afd-a205f3f6c5ab"/></defs><path class="b6eeaf21-078f-4709-b437-8cd12416b278" d="M319.48108,632.83543v-64.0453c0-36.718,38.6376-60.60215,71.48214-44.18724l252.94919,126.418,568.46585-284.9427c32.84791-16.465,71.53415,7.41776,71.53415,44.16121V981.97528a49.3984,49.3984,0,0,1-26.54839,43.79588l-55.47222,28.942c-32.75672,17.09047-71.99524-6.51267-72.24729-43.45889l-2.93528-430.263L643.91241,827.11166l-297.306-150.18415A49.39841,49.39841,0,0,1,319.48108,632.83543Z" transform="translate(-3.91241 -3.88928)"/><path class="b22f0e3f-ecc2-48d0-949a-2ad853a23fce" d="M157.62864,1004.31738V225.32278L646.67291,467.375l609.79541-302.53417a49.39843,49.39843,0,0,0,27.44409-44.25167V53.72763c0-36.82024-38.83338-60.69853-71.691-44.08223L647.25408,295.35229,75.41842,9.17619c-32.8461-16.43788-71.506,7.44561-71.506,44.1753v923.039A49.39841,49.39841,0,0,0,30.92,1020.423l54.91941,27.92688C118.703,1065.06115,157.62864,1041.18579,157.62864,1004.31738Z" transform="translate(-3.91241 -3.88928)"/></svg>