<svg id="e525124f-8ae2-4dca-932a-2e318c4a8fad" data-name="Warstwa 1" xmlns="http://www.w3.org/2000/svg" xmlns:xlink="http://www.w3.org/1999/xlink" viewBox="0 0 797.34 797.34"><defs><style>.f26646a2-7411-4c02-a01a-6adad374359d{fill:url(#b3755666-b9be-4b1a-a0ec-81e1264f4560);}.b4560ebf-4bfd-4bde-a98e-a07499d816e0{fill:url(#f6865024-84d6-4292-bd2d-492f1b122d14);}.b45b38b8-8db0-4560-bc2c-c38d8ebe06af{fill:url(#f034b794-4072-4a0b-bfcb-8c9cee369296);}.abb777fe-b0dc-4ae3-b1cc-456633069ce6{fill:url(#f4e5fab6-76c0-49bf-8eb3-2e5d5126113b);}.e816fe99-e5e8-4a29-8401-774ed04a7a64{fill:url(#a864fc39-1f36-46fb-8949-e4d35e78f641);}.a91e5a4a-064f-49d7-91e0-b4c99f4f3fd5{fill:url(#ab3a66dc-e292-45c9-afb7-cbe408976716);}.aef756e1-c6ef-4c68-8208-c0ace5f5088d{fill:url(#a5fe84ef-6586-4b03-a442-733f3f593a04);}.abfeaad9-6dbd-4319-aeab-0e8d74615b71{fill:url(#e9e6bd81-018c-4bac-b2f8-ab1c02273368);}</style><linearGradient id="b3755666-b9be-4b1a-a0ec-81e1264f4560" x1="227.155" y1="790.955" x2="655.185" y2="362.925" gradientUnits="userSpaceOnUse"><stop offset="0" stop-color="#000428"/><stop offset="0.01274" stop-color="#00062b"/><stop offset="0.21409" stop-color="#002050"/><stop offset="0.4155" stop-color="#00346d"/><stop offset="0.61475" stop-color="#004281"/><stop offset="0.81081" stop-color="#004b8e"/><stop offset="1" stop-color="#004e92"/></linearGradient><linearGradient id="f6865024-84d6-4292-bd2d-492f1b122d14" x1="180.06645" y1="704.10836" x2="544.1774" y2="339.9974" xlink:href="#b3755666-b9be-4b1a-a0ec-81e1264f4560"/><linearGradient id="f034b794-4072-4a0b-bfcb-8c9cee369296" x1="298.11979" y1="861.80979" x2="745.9846" y2="413.94498" xlink:href="#b3755666-b9be-4b1a-a0ec-81e1264f4560"/><linearGradient id="f4e5fab6-76c0-49bf-8eb3-2e5d5126113b" x1="372.045" y1="763.725" x2="781.905" y2="353.865" xlink:href="#b3755666-b9be-4b1a-a0ec-81e1264f4560"/><linearGradient id="a864fc39-1f36-46fb-8949-e4d35e78f641" x1="455.82363" y1="660.00363" x2="819.93321" y2="295.89405" xlink:href="#b3755666-b9be-4b1a-a0ec-81e1264f4560"/><linearGradient id="ab3a66dc-e292-45c9-afb7-cbe408976716" x1="344.78" y1="637.04" x2="772.81" y2="209.01" xlink:href="#b3755666-b9be-4b1a-a0ec-81e1264f4560"/><linearGradient id="a5fe84ef-6586-4b03-a442-733f3f593a04" x1="254.0154" y1="586.05502" x2="701.88396" y2="138.18646" xlink:href="#b3755666-b9be-4b1a-a0ec-81e1264f4560"/><linearGradient id="e9e6bd81-018c-4bac-b2f8-ab1c02273368" x1="218.09435" y1="646.13435" x2="627.95435" y2="236.27435" xlink:href="#b3755666-b9be-4b1a-a0ec-81e1264f4560"/></defs><path class="f26646a2-7411-4c02-a01a-6adad374359d" d="M727.12,500A302.68355,302.68355,0,0,1,223.36,787.05c-.19-.17-.37-.35-.56-.53q-2.37-2.295-4.7-4.62c-1.1-1.1-2.2-2.22-3.29-3.33-.45-.46-.89-.91-1.33-1.37q-1.95-2.01-3.87-4.05-1.38-1.47-2.73-2.94c-.81-.87-1.61-1.74-2.39-2.61-.81-.89-1.61-1.78-2.41-2.68a2.00234,2.00234,0,0,1-.14-.16,399.1281,399.1281,0,0,1-64.18-98.05q-1.995-4.305-3.88-8.68c-.51-1.19-1.02-2.39-1.53-3.59l-.9-2.16-.54-1.32c-.48-1.18-.96-2.36-1.43-3.55-.07-.18-.14-.35-.21-.52-.47-1.19-.93-2.38-1.39-3.57-.72-1.88-1.43-3.75-2.12-5.63-.47-1.3-.94-2.59-1.4-3.88a399.09868,399.09868,0,0,1-21.28-96.36l-.36-4.05c-.02-.27-.04-.53-.06-.8-.13-1.5-.24-3-.34-4.5-.08-1.14-.16-2.29-.23-3.44q-.075-1.05-.12-2.1c-.05-.82-.1-1.65-.13-2.48-.05-.88-.09-1.77-.12-2.65-.03-.58-.06-1.15-.07-1.73-.05-.96-.08-1.93-.11-2.9-.03-.69-.05-1.39-.06-2.08-.03-1.2-.06-2.4-.08-3.61a1.81875,1.81875,0,0,1,0-.33c2.32,105.34,58.45,197.41,142,249.82A302.64861,302.64861,0,0,0,706.66,502.48c.01-.83.01-1.65.01-2.48,0-1.65-.02-3.31-.06-4.96s-.1-3.3-.18-4.95c-.03-.83-.08-1.65-.13-2.48-.04-.83-.1-1.65-.16-2.47-.05-.79-.11-1.58-.18-2.36-.01-.07-.01-.15-.02-.22A205.00294,205.00294,0,0,0,695.9,434q-.39-1.185-.81-2.37c-.55-1.58-1.12-3.16-1.72-4.72q-.435-1.17-.9-2.34c-.3-.78-.62-1.56-.93-2.34-.75-1.86-1.53-3.7-2.35-5.54-.58-1.35-1.19-2.69-1.82-4.02a204.608,204.608,0,0,0-24.78-40.27c-.5-.65-1.01-1.3-1.54-1.94-.51-.64-1.03-1.29-1.57-1.92-.52-.64-1.05-1.28-1.59-1.91-.53-.63-1.06-1.26-1.61-1.88-.54-.63-1.08-1.25-1.64-1.87-.54-.62-1.1-1.23-1.66-1.84-1.59-1.76-3.23-3.5-4.9-5.22A301.2252,301.2252,0,0,1,727.12,500Z" transform="translate(-101.33 -101.33)"/><path class="b4560ebf-4bfd-4bde-a98e-a07499d816e0" d="M706.61,504.96c.02-.83.04-1.65.05-2.48A302.73536,302.73536,0,0,1,243.4,756.6c-83.55-52.41-139.68-144.48-142-249.82a1.2102,1.2102,0,0,1-.01-.19c-.02-.63-.03-1.27-.03-1.9-.02-1.57-.03-3.13-.03-4.69s.01-3.12.03-4.69c.01-.8.02-1.61.04-2.42.02-1.21.05-2.41.08-3.61.01-.69.03-1.39.06-2.08.03-.97.06-1.94.11-2.9q0-.465.03-.93c.01-.27.02-.53.04-.8.03-.88.07-1.77.12-2.65.03-.81.08-1.61.12-2.41a.27686.27686,0,0,0,.01-.09c.03-.7.07-1.39.12-2.08.07-1.15.15-2.3.23-3.44.1-1.5.21-3,.34-4.5,0-.06.01-.12.01-.18.02-.21.04-.41.05-.62l.36-4.05a399.09868,399.09868,0,0,1,21.28-96.36c.46-1.29.93-2.58,1.4-3.88.07-.19.14-.38.21-.58.26-.69.52-1.39.78-2.09.3-.78.59-1.56.89-2.35.08-.2.16-.41.24-.61.46-1.19.92-2.38,1.39-3.57.03-.08.07-.17.1-.25.04-.09.07-.18.11-.27.47-1.19.95-2.37,1.43-3.55l.54-1.32.45-1.08c.11-.27.23-.55.34-.82l.42-.99c.25-.6.51-1.2.76-1.79.15-.35.3-.71.46-1.07.13-.3.26-.59.39-.88.5-1.16,1.01-2.32,1.53-3.47.64-1.45,1.3-2.89,1.96-4.33-.01-.01,0-.01,0-.01q.99-2.145,2.01-4.28,1.02-2.145,2.06-4.27,1.05-2.13,2.11-4.24,1.065-2.115,2.16-4.21c.73-1.4,1.46-2.8,2.21-4.19q3.525-6.6,7.3-13.04c.66-1.13,1.33-2.26,2-3.38.81-1.35,1.62-2.7,2.44-4.03.83-1.34,1.65-2.68,2.49-4,.84-1.33,1.68-2.66,2.54-3.97q1.275-1.98,2.58-3.94,2.64-3.975,5.38-7.9c.87-1.24,1.74-2.48,2.63-3.71q3.105-4.335,6.32-8.58c.69-.91,1.38-1.82,2.08-2.72.95-1.24,1.92-2.48,2.89-3.7.97-1.23,1.94-2.45,2.93-3.67q1.47-1.83,2.97-3.63c1.15-1.39,2.31-2.78,3.49-4.15.85-1,1.71-2.01,2.58-3,.79-.92,1.59-1.83,2.4-2.74q.465-.54.96-1.08c.69-.78,1.38-1.55,2.08-2.31.88-.99,1.78-1.97,2.7-2.95.78-.86,1.57-1.71,2.38-2.56.18-.2.37-.4.55-.59.22-.24.44-.47.67-.7.29-.31.58-.62.88-.93.46-.49.93-.97,1.4-1.45A302.67381,302.67381,0,0,0,644.18,648.08c.66-.64,1.31-1.29,1.96-1.94q3.525-3.525,6.84-7.18c.56-.61,1.12-1.22,1.66-1.84.56-.62,1.1-1.24,1.64-1.87.55-.62,1.08-1.25,1.61-1.88.54-.63,1.07-1.27,1.59-1.91.54-.63,1.06-1.28,1.57-1.92.53-.64,1.04-1.29,1.54-1.94a204.608,204.608,0,0,0,24.78-40.27c.63-1.33,1.24-2.67,1.82-4.02.82-1.84,1.6-3.68,2.35-5.54.31-.78.63-1.56.93-2.34q.465-1.17.9-2.34c.6-1.56,1.17-3.14,1.72-4.72q.42-1.185.81-2.37a205.00294,205.00294,0,0,0,10.04-48.56c.01-.07.01-.15.02-.22.07-.78.13-1.57.18-2.36.06-.82.12-1.64.16-2.47.05-.83.1-1.65.13-2.48Q706.55,507.435,706.61,504.96Z" transform="translate(-101.33 -101.33)"/><path class="b45b38b8-8db0-4560-bc2c-c38d8ebe06af" d="M787.13,500A303.44214,303.44214,0,0,1,756.6,756.6c-52.39,83.51-144.4,139.63-249.68,142a1.47687,1.47687,0,0,1-.21.01c-.67.02-1.34.03-2.02.03-1.56.02-3.13.03-4.69.03s-3.12-.01-4.69-.03c-.8-.01-1.61-.02-2.42-.04-1.21-.02-2.41-.05-3.61-.08-.69-.01-1.39-.03-2.08-.06-.97-.03-1.94-.06-2.9-.11-.57-.01-1.15-.03-1.73-.07-.88-.03-1.77-.07-2.65-.12-.83-.03-1.66-.08-2.48-.13q-1.05-.045-2.1-.12c-1.15-.07-2.29-.15-3.44-.23-1.5-.1-3-.21-4.5-.34-.26-.02-.53-.04-.8-.06l-4.05-.36a399.22607,399.22607,0,0,1-47.42-7.34q-3.555-.765-7.11-1.61c-.66-.16-1.32-.31-1.97-.47q-3.66-.885-7.3-1.84c-.64-.16-1.28-.33-1.91-.5-2.38-.64-4.75-1.29-7.12-1.98q-11.865-3.39-23.53-7.54c-1.29-.46-2.59-.93-3.88-1.4-.53-.2-1.06-.39-1.58-.59-.77-.28-1.54-.57-2.3-.86-.59-.22-1.17-.45-1.75-.67-1.19-.46-2.38-.92-3.57-1.39-.18-.07-.35-.14-.52-.21-1.19-.47-2.37-.95-3.55-1.43-.2-.08-.4-.16-.59-.24-.97-.4-1.93-.8-2.89-1.2-.14-.06-.29-.12-.43-.18-.87-.37-1.73-.74-2.59-1.11-.34-.14-.68-.28-1.01-.43-1.27-.55-2.53-1.11-3.79-1.67-1.49-.66-2.97-1.34-4.45-2.02a398.81877,398.81877,0,0,1-91.06-58.11c-1.2-1.01-2.38-2.03-3.56-3.06-1.15-.99-2.3-2-3.43-3.01a1.07037,1.07037,0,0,1-.16-.14c-.9-.8-1.79-1.6-2.68-2.41-.87-.79-1.75-1.58-2.61-2.39-.99-.9-1.97-1.82-2.94-2.73-1.17-1.11-2.34-2.22-3.49-3.34A302.67381,302.67381,0,0,0,648.08,355.82c-.64-.66-1.29-1.31-1.94-1.96q-3.525-3.525-7.18-6.84c-.61-.56-1.22-1.12-1.84-1.66-.62-.56-1.24-1.1-1.87-1.64-.62-.55-1.25-1.08-1.88-1.61-.63-.54-1.27-1.07-1.91-1.59-.63-.54-1.28-1.06-1.92-1.57-.64-.53-1.29-1.04-1.94-1.54a204.608,204.608,0,0,0-40.27-24.78c-1.33-.63-2.67-1.24-4.02-1.82-1.84-.82-3.68-1.6-5.54-2.35-.78-.31-1.56-.63-2.34-.93q-1.17-.465-2.34-.9c-1.56-.6-3.14-1.17-4.72-1.72q-1.185-.42-2.37-.81a205.00294,205.00294,0,0,0-48.56-10.04c-.07-.01-.15-.01-.22-.02-.78-.07-1.57-.13-2.36-.18-.82-.06-1.64-.12-2.47-.16-.83-.05-1.65-.1-2.48-.13q-2.475-.12-4.95-.18c-.83-.02-1.65-.04-2.48-.05A302.679,302.679,0,0,1,787.13,500Z" transform="translate(-101.33 -101.33)"/><path class="abb777fe-b0dc-4ae3-b1cc-456633069ce6" d="M862.89,500a302.53682,302.53682,0,0,1-75.84,276.64c-.17.19-.35.37-.53.56a.31437.31437,0,0,1-.1.1c-.32.34-.64.67-.97,1a3.25107,3.25107,0,0,1-.26.27c-.65.67-1.31,1.34-1.97,2-.44.44-.88.89-1.32,1.33-.27.27-.55.55-.82.81q-1.14,1.14-2.28,2.25a2.49638,2.49638,0,0,1-.23.23c-.23.23-.46.45-.69.67-.19.2-.38.38-.58.56a.31437.31437,0,0,1-.1.1c-.34.33-.68.65-1.02.98-.27.26-.54.52-.81.77-.6.59-1.2,1.16-1.81,1.73-.19.18-.38.37-.58.54-.13.13-.26.25-.39.37-.79.75-1.58,1.48-2.38,2.21-.11.11-.21.2-.32.3-.17.16-.35.32-.52.48a2.18963,2.18963,0,0,1-.23.21c-.59.55-1.19,1.09-1.78,1.62-.55.5-1.11,1-1.67,1.5-.26.23-.51.46-.77.69a1.192,1.192,0,0,1-.18.15q-1.695,1.515-3.41,3-3.855,3.36-7.8,6.6c-.99.82-1.98,1.64-2.98,2.44-1.22.99-2.44,1.96-3.67,2.93q-1.815,1.44-3.66,2.86c-1.06.83-2.13,1.64-3.21,2.45-.74.57-1.5,1.13-2.25,1.69q-8.94,6.66-18.27,12.81c-1.04.69-2.08,1.38-3.13,2.05-1.51.98-3.02,1.95-4.54,2.89-1.15.73-2.3,1.45-3.46,2.16-1.33.82-2.68,1.63-4.03,2.44-1.13.68-2.27,1.35-3.41,2.02-1.02.6-2.06,1.2-3.09,1.78q-9.6,5.52-19.53,10.47c-1.01.51-2.02,1.01-3.03,1.51q-3.975,1.95-7.99,3.81a4.79744,4.79744,0,0,1-.57.26c-1.34.62-2.68,1.23-4.03,1.83-1.36.62-2.73,1.22-4.1,1.81-.15.07-.29.13-.43.19a.61171.61171,0,0,1-.12.05c-1,.43-2,.86-3,1.28,0,0,0,.01-.01,0-.01.01-.02.02-.03.01a5.37955,5.37955,0,0,1-.55.24c-.19.08-.38.17-.58.24-.09.04-.19.08-.28.12-.18.08-.37.16-.56.23-.35.15-.71.3-1.06.44-.43.18-.86.36-1.3.53-.43.18-.87.36-1.31.53l-.66.27c-.43.17-.86.34-1.28.51a.47144.47144,0,0,1-.15.06c-.45.19-.9.36-1.36.54-.55.22-1.11.44-1.66.64-.16.07-.31.13-.47.19-.35.14-.7.27-1.05.4-.38.15-.76.3-1.15.44-.39.15-.79.3-1.19.45-.36.14-.72.27-1.09.41a1.33553,1.33553,0,0,0-.18.07l-.33.12a.983.983,0,0,1-.16.05c-.2.08-.4.16-.6.23l-.33.12c-.39.14-.77.28-1.16.42-.82.3-1.64.6-2.46.89-.08.03-.17.06-.26.09-.27.1-.55.2-.83.29-1.16.41-2.32.82-3.48,1.21q-1.86.645-3.72,1.26c-.32.11-.63.21-.94.31-.32.11-.63.21-.95.31-1.15.37-2.31.75-3.46,1.11-1.24.4-2.49.78-3.74,1.16-.91.28-1.82.55-2.73.82-.85.25-1.69.5-2.54.75-.25.07-.5.15-.75.22-1.31.37-2.62.74-3.93,1.1-1.26.36-2.51.7-3.78,1.03-.88.24-1.76.47-2.65.69-.89.24-1.79.47-2.69.69-1.36.35-2.73.69-4.1,1.01-.9.22-1.81.44-2.72.64q-4.275,1.005-8.57,1.9c-.97.21-1.95.41-2.93.61q-4.365.885-8.75,1.66-1.395.255-2.79.48-10.455,1.815-20.98,3.04c-1.55.18-3.1.36-4.66.52-1.45.16-2.92.3-4.38.44-.1.01-.19.02-.29.03-1.18.11-2.36.21-3.54.31-.55.05-1.11.1-1.67.14-.72.06-1.43.12-2.15.16-.3.03-.59.05-.89.07-.36.03-.73.06-1.1.08a2.64169,2.64169,0,0,1-.29.02c-.4.03-.8.06-1.2.08-.57.04-1.14.08-1.72.11-.43.03-.86.06-1.29.08-.34.03-.69.05-1.04.06-.41.03-.82.05-1.24.07-.15.01-.31.02-.47.02-.25.02-.51.03-.77.04-.79.05-1.59.08-2.39.11a2.26021,2.26021,0,0,1-.26.01c-.27.02-.53.03-.8.04q-.465.03-.93.03a.81728.81728,0,0,1-.27.01c-.82.04-1.65.07-2.48.09a.75687.75687,0,0,1-.15.01c-.12.01-.24.01-.35.01a.2845.2845,0,0,1-.13,0c-.42.02-.84.04-1.26.04-.13.01-.25.01-.38.01-1.18.03-2.37.06-3.56.08a.66949.66949,0,0,1-.2,0c105.28-2.37,197.29-58.49,249.68-142A302.64861,302.64861,0,0,0,502.48,293.34c-.83-.01-1.65-.01-2.48-.01-1.65,0-3.31.02-4.96.06s-3.3.1-4.95.18c-.83.03-1.65.08-2.48.13-.83.04-1.65.1-2.47.16-.79.05-1.58.11-2.36.18-.07.01-.15.01-.22.02A205.00294,205.00294,0,0,0,434,304.1q-1.185.39-2.37.81c-1.58.55-3.16,1.12-4.72,1.72q-1.17.435-2.34.9c-.78.3-1.56.62-2.34.93-1.86.75-3.7,1.53-5.54,2.35-1.35.58-2.69,1.19-4.02,1.82a204.608,204.608,0,0,0-40.27,24.78c-.65.5-1.3,1.01-1.94,1.54-.64.51-1.29,1.03-1.92,1.57-.64.52-1.28,1.05-1.91,1.59-.63.53-1.26,1.06-1.88,1.61-.63.54-1.25,1.08-1.87,1.64-.62.54-1.23,1.1-1.84,1.66-1.76,1.59-3.5,3.23-5.22,4.9A302.74057,302.74057,0,0,1,862.89,500Z" transform="translate(-101.33 -101.33)"/><path class="e816fe99-e5e8-4a29-8401-774ed04a7a64" d="M898.64,495.28c.02,1.57.03,3.15.03,4.72,0,1.56-.01,3.13-.03,4.69,0,.64-.01,1.27-.03,1.9,0,.17,0,.35-.01.52-.02,1.21-.05,2.41-.08,3.61,0,.16,0,.32-.01.49-.01.31-.01.62-.03.93,0,.22-.01.44-.02.66-.03.97-.06,1.94-.11,2.9q0,.465-.03.93c-.01.27-.02.53-.04.8-.03.88-.07,1.77-.12,2.65-.01.26-.02.51-.04.77q-.03.855-.09,1.71c-.01.35-.03.7-.06,1.04-.05,1.01-.12,2.01-.19,3.01-.02.44-.05.89-.09,1.33a.8602.8602,0,0,1-.01.16c-.02.37-.05.73-.08,1.1-.07,1.01-.15,2.03-.23,3.04-.01.14-.02.29-.03.43a.4102.4102,0,0,0-.01.11,2.10522,2.10522,0,0,0-.02.25c-.01.12-.02.25-.03.37l-.03.33-.33,3.72c-.01.1-.02.19-.03.29-.14,1.46-.28,2.92-.44,4.38-.16,1.55-.34,3.11-.52,4.66q-1.095,9.315-2.63,18.59c-.14.89-.29,1.77-.45,2.65-.14.84-.28,1.68-.44,2.53q-.78,4.38-1.66,8.75c-.24,1.16-.48,2.32-.72,3.47-.19.89-.38,1.78-.58,2.67-.26,1.23-.54,2.46-.82,3.69-.45,1.98-.92,3.97-1.41,5.94-.25,1.06-.51,2.11-.78,3.16-.07.28-.14.56-.22.84-.32,1.29-.65,2.57-1,3.85a1.05481,1.05481,0,0,1-.05.19c-.39,1.48-.79,2.96-1.21,4.43-.34,1.25-.7,2.49-1.06,3.74-.32,1.11-.65,2.22-.98,3.32-.57,1.91-1.15,3.82-1.76,5.73-.46,1.48-.94,2.95-1.42,4.42a.75958.75958,0,0,1-.04.11c-.49,1.49-.99,2.98-1.5,4.46q-.765,2.25-1.56,4.48-.63,1.785-1.29,3.57c-.08.23-.16.46-.25.69-.06.19-.13.37-.21.56-.35.96-.71,1.93-1.08,2.89-.19.52-.39,1.04-.59,1.55-.41,1.07-.82,2.13-1.24,3.19-.13.34-.26.67-.4,1.01-.53,1.35-1.08,2.7-1.63,4.04-.15.37-.3.75-.46,1.12-.08.2-.16.4-.25.6-.16.39-.32.77-.48,1.15a4.2481,4.2481,0,0,1-.21.49,1.80284,1.80284,0,0,1-.08.21.77406.77406,0,0,1-.07.16c-.35.81-.69,1.62-1.04,2.43a1.86115,1.86115,0,0,1-.1.25,3.09,3.09,0,0,1-.14.32c-.06.15-.12.3-.19.44a3.88993,3.88993,0,0,1-.19.42c-.45,1.03-.9,2.06-1.36,3.09-.14.35-.3.69-.47,1.03-.46,1.05-.93,2.1-1.42,3.14-.19.45-.4.9-.62,1.34-.52,1.13-1.05,2.26-1.58,3.39a3.02121,3.02121,0,0,1-.18.36c-.59,1.25-1.19,2.51-1.8,3.75-.12.25-.24.49-.36.73-.59,1.2-1.19,2.39-1.78,3.58-.12.23-.23.46-.35.68-.58,1.15-1.17,2.29-1.76,3.43-.15.31-.31.61-.48.91-.54,1.04-1.08,2.08-1.64,3.12-.67,1.27-1.35,2.54-2.05,3.79-.37.7-.76,1.39-1.15,2.08-.46.83-.92,1.66-1.38,2.48-.18.33-.36.65-.55.96-.65,1.16-1.32,2.31-1.98,3.45-.04.08-.09.15-.13.22q-1.14,1.965-2.31,3.91-1.125,1.89-2.28,3.77c-.2.33-.39.65-.59.96-.59.95-1.18,1.9-1.78,2.84-.28.47-.57.93-.87,1.39l-1.86,2.91a4.04737,4.04737,0,0,1-.23.34c-.8,1.25-1.62,2.49-2.44,3.73q-1.215,1.83-2.45,3.65-3.72,5.475-7.62,10.8c-.75,1.04-1.51,2.08-2.29,3.11-.18.26-.37.51-.56.76q-.78,1.05-1.59,2.1c-.63.84-1.26,1.67-1.9,2.49-.95,1.24-1.92,2.48-2.89,3.7-.97,1.23-1.94,2.45-2.93,3.67-.94,1.16-1.88,2.32-2.84,3.47-.76.93-1.53,1.86-2.31,2.77-.27.33-.55.66-.83.98-.18.22-.36.43-.56.65-.82.97-1.66,1.95-2.5,2.91-.98,1.13-1.96,2.26-2.96,3.37-.15.18-.31.36-.47.53-.48.54-.96,1.08-1.45,1.62-.23.25-.45.5-.68.75-.53.59-1.07,1.18-1.61,1.77-.17.2-.36.41-.56.61-.07.08-.15.16-.22.23-.84.92-1.68,1.82-2.54,2.73-.18.21-.38.42-.58.62-.22.24-.44.47-.67.7-.29.31-.58.62-.88.93-.31.33-.63.66-.95.99-.15.16-.29.31-.45.46A302.67381,302.67381,0,0,0,355.82,351.92c-.66.64-1.31,1.29-1.96,1.94q-3.525,3.525-6.84,7.18c-.56.61-1.12,1.22-1.66,1.84-.56.62-1.1,1.24-1.64,1.87-.55.62-1.08,1.25-1.61,1.88-.54.63-1.07,1.27-1.59,1.91-.54.63-1.06,1.28-1.57,1.92-.53.64-1.04,1.29-1.54,1.94a204.608,204.608,0,0,0-24.78,40.27c-.63,1.33-1.24,2.67-1.82,4.02-.82,1.84-1.6,3.68-2.35,5.54-.31.78-.63,1.56-.93,2.34q-.465,1.17-.9,2.34c-.6,1.56-1.17,3.14-1.72,4.72q-.42,1.185-.81,2.37a205.00294,205.00294,0,0,0-10.04,48.56c-.01.07-.01.15-.02.22-.07.78-.13,1.57-.18,2.36-.06.82-.12,1.64-.16,2.47-.05.83-.1,1.65-.13,2.48q-.12,2.475-.18,4.95c-.02.83-.04,1.65-.05,2.48A302.73536,302.73536,0,0,1,756.6,243.4c83.51,52.39,139.63,144.4,142,249.68a1.47687,1.47687,0,0,1,.01.21C898.62,493.95,898.63,494.61,898.64,495.28Z" transform="translate(-101.33 -101.33)"/><path class="a91e5a4a-064f-49d7-91e0-b4c99f4f3fd5" d="M898.51,488.99c.04,1.36.07,2.72.09,4.09-2.37-105.28-58.49-197.29-142-249.68A302.64861,302.64861,0,0,0,293.34,497.52c-.01.83-.01,1.65-.01,2.48,0,1.65.02,3.31.06,4.96s.1,3.3.18,4.95c.03.83.08,1.65.13,2.48.04.83.1,1.65.16,2.47.05.79.11,1.58.18,2.36.01.07.01.15.02.22A205.00294,205.00294,0,0,0,304.1,566q.39,1.185.81,2.37c.55,1.58,1.12,3.16,1.72,4.72q.435,1.17.9,2.34c.3.78.62,1.56.93,2.34.75,1.86,1.53,3.7,2.35,5.54.58,1.35,1.19,2.69,1.82,4.02a204.608,204.608,0,0,0,24.78,40.27c.5.65,1.01,1.3,1.54,1.94.51.64,1.03,1.29,1.57,1.92.52.64,1.05,1.28,1.59,1.91.53.63,1.06,1.26,1.61,1.88.54.63,1.08,1.25,1.64,1.87.54.62,1.1,1.23,1.66,1.84,1.59,1.76,3.23,3.5,4.9,5.22A302.67269,302.67269,0,0,1,776.73,213.04c.16.14.31.29.47.44a.94281.94281,0,0,1,.1.1c.14.13.28.26.42.4.17.17.34.33.51.5a2.91238,2.91238,0,0,1,.31.3c.68.66,1.36,1.33,2.03,2,.44.44.89.88,1.33,1.32.28.28.55.55.82.83.75.74,1.49,1.49,2.23,2.25.92.93,1.83,1.87,2.72,2.81.28.29.56.58.83.87.83.87,1.66,1.74,2.48,2.62.79.84,1.57,1.68,2.34,2.53.27.28.53.56.79.85a6.39161,6.39161,0,0,1,.44.48c.91.99,1.82,2,2.72,3.01.5.56,1,1.12,1.5,1.69.75.85,1.5,1.7,2.24,2.55q2.775,3.195,5.48,6.45c.68.81,1.35,1.62,2,2.43.54.65,1.07,1.3,1.6,1.95q2.73,3.375,5.38,6.8c.75.97,1.49,1.93,2.23,2.91q3.255,4.275,6.37,8.63c.6.83,1.19,1.66,1.78,2.5.34.47.67.94,1,1.41.55.79,1.1,1.59,1.65,2.39.35.49.69.99,1.02,1.49.61.88,1.21,1.77,1.8,2.66.27.39.53.77.78,1.16.59.88,1.18,1.77,1.75,2.66q1.785,2.7,3.49,5.43.75,1.17,1.47,2.34c.36.57.71,1.14,1.06,1.71.54.87,1.07,1.74,1.59,2.62.24.38.47.76.7,1.14.74,1.25,1.48,2.49,2.21,3.75a.35082.35082,0,0,1,.05.08c.54.92,1.08,1.85,1.6,2.78.43.72.84,1.45,1.25,2.18q.36.615.69,1.23c.61,1.06,1.2,2.13,1.78,3.2.62,1.12,1.23,2.25,1.83,3.38.55,1.01,1.08,2.02,1.61,3.04.23.41.44.83.65,1.24.61,1.17,1.22,2.34,1.81,3.52a2.0027,2.0027,0,0,1,.15.29c.56,1.1,1.11,2.19,1.65,3.29q.375.735.72,1.47c.61,1.23,1.2,2.46,1.79,3.69.67,1.39,1.32,2.79,1.97,4.18.03.07.07.14.1.21.54,1.18,1.08,2.36,1.61,3.55.12.23.22.47.33.71a3.93206,3.93206,0,0,1,.23.52c.43.97.87,1.95,1.29,2.93.15.3.28.6.4.91.09.21.18.41.26.62.42.95.83,1.9,1.23,2.86.22.5.43,1.01.64,1.52.4.97.81,1.94,1.2,2.92.13.3.25.6.37.9.06.14.11.27.16.41.37.91.74,1.82,1.09,2.73.32.79.63,1.58.93,2.38.16.38.3.76.45,1.14l.66,1.74c.25.64.49,1.29.73,1.94.02.04.03.08.05.13a1.33553,1.33553,0,0,0,.07.18c.53,1.43,1.05,2.87,1.57,4.31.54,1.5,1.06,3,1.58,4.5.52,1.51,1.03,3.01,1.53,4.52a399.42553,399.42553,0,0,1,18.49,88.04c.12,1.28.24,2.55.34,3.83.03.29.05.59.08.88.01.17.03.34.04.51q.105,1.215.18,2.43c.08.88.14,1.76.2,2.65.06.85.11,1.7.16,2.55.07,1.06.14,2.13.19,3.2.01.21.03.41.03.62.08,1.39.14,2.79.2,4.2a1.40839,1.40839,0,0,1,.01.2,1.47687,1.47687,0,0,1,.01.21,1.84838,1.84838,0,0,1,.01.23c.05,1.26.09,2.52.13,3.78.02.4.03.79.04,1.18A2.25334,2.25334,0,0,1,898.51,488.99Z" transform="translate(-101.33 -101.33)"/><path class="aef756e1-c6ef-4c68-8208-c0ace5f5088d" d="M776.36,212.67c.13.12.25.24.37.37A302.67228,302.67228,0,0,0,351.92,644.18c.64.66,1.29,1.31,1.94,1.96q3.525,3.525,7.18,6.84c.61.56,1.22,1.12,1.84,1.66.62.56,1.24,1.1,1.87,1.64.62.55,1.25,1.08,1.88,1.61.63.54,1.27,1.07,1.91,1.59.63.54,1.28,1.06,1.92,1.57.64.53,1.29,1.04,1.94,1.54a204.608,204.608,0,0,0,40.27,24.78c1.33.63,2.67,1.24,4.02,1.82,1.84.82,3.68,1.6,5.54,2.35.78.31,1.56.63,2.34.93q1.17.465,2.34.9c1.56.6,3.14,1.17,4.72,1.72q1.185.42,2.37.81a205.00294,205.00294,0,0,0,48.56,10.04c.07.01.15.01.22.02.78.07,1.57.13,2.36.18.82.06,1.64.12,2.47.16.83.05,1.65.1,2.48.13q2.475.12,4.95.18c.83.02,1.65.04,2.48.05A302.73536,302.73536,0,0,1,243.4,243.4c52.39-83.51,144.4-139.63,249.68-142a1.47687,1.47687,0,0,1,.21-.01c.67-.01,1.35-.02,2.02-.03,1.57-.02,3.13-.03,4.69-.03s3.12.01,4.69.03h.03c1.55.02,3.1.04,4.65.08h.08c1.58.04,3.15.09,4.72.14.31.01.63.02.94.04q1.815.06,3.63.15c.15,0,.29.01.43.02.56.03,1.12.05,1.68.09,1.92.09,3.84.21,5.76.34.5.03,1,.06,1.49.1,1.38.09,2.76.2,4.14.31.18.01.36.03.54.04a2.10522,2.10522,0,0,0,.25.02c1.47.13,2.95.26,4.42.39,1.56.15,3.11.31,4.67.47s3.11.34,4.66.52q10.53,1.23,20.98,3.04,1.395.225,2.79.48c2.92.52,5.84,1.08,8.75,1.66.98.2,1.96.4,2.93.61q4.29.9,8.57,1.9c.91.2,1.82.42,2.72.64,1.37.33,2.73.66,4.1,1.01.9.22,1.8.45,2.69.69.89.22,1.77.45,2.65.69,1.26.34,2.52.68,3.78,1.03,1.31.36,2.62.73,3.93,1.1.25.08.5.15.75.22.85.25,1.69.5,2.54.75.91.27,1.82.54,2.73.82,1.24.38,2.49.77,3.74,1.16,1.15.36,2.31.74,3.46,1.11q2.805.915,5.61,1.88c1.16.39,2.32.8,3.48,1.21.35.12.71.25,1.07.38.82.29,1.65.59,2.48.89l1.08.39c.45.16.89.33,1.34.5.11.04.22.08.34.12.36.14.73.28,1.09.41,1.01.38,2.02.76,3.03,1.15.12.05.24.1.36.14.71.28,1.42.55,2.13.83.48.19.96.38,1.45.57,1.02.41,2.04.82,3.05,1.24q.45.165.9.36l.81.33c.19.08.37.15.56.23.39.16.79.33,1.19.5.34.14.68.28,1.02.43.66.27,1.31.54,1.95.82.08.04.17.07.26.11.62.27,1.25.54,1.87.82.63.27,1.26.54,1.89.82q2.16.96,4.29,1.93c1.45.65,2.88,1.32,4.32,1.99.2.08.39.18.59.28q8.31,3.93,16.42,8.23c1.09.57,2.17,1.15,3.24,1.75.83.43,1.66.89,2.49,1.35,1.09.59,2.17,1.2,3.25,1.81,1.38.78,2.76,1.56,4.13,2.36,1.19.68,2.37,1.38,3.54,2.08,1.03.6,2.06,1.22,3.08,1.84q10.575,6.405,20.72,13.44c1.18.82,2.35,1.64,3.52,2.48.11.07.22.15.34.23,1.27.9,2.52,1.8,3.77,2.72,1.06.76,2.1,1.54,3.15,2.32,2.21,1.64,4.4,3.3,6.58,5,.74.57,1.48,1.15,2.22,1.73,1.01.8,2.02,1.6,3.02,2.4l.78.63c.96.77,1.92,1.56,2.87,2.34.26.2.53.42.79.65.95.79,1.89,1.57,2.83,2.37,1.2,1.01,2.4,2.03,3.58,3.05.27.22.53.45.8.69.51.45,1.02.89,1.53,1.34,1.01.88,2.02,1.77,3.02,2.68.38.33.76.67,1.13,1.01.2.18.41.37.61.56.26.22.51.45.77.69.56.5,1.11,1.01,1.66,1.52.18.16.35.32.52.49.27.24.54.49.81.74q.705.645,1.41,1.32l.93.87c.22.21.44.41.66.63C774.94,211.3,775.65,211.99,776.36,212.67Z" transform="translate(-101.33 -101.33)"/><path class="abfeaad9-6dbd-4319-aeab-0e8d74615b71" d="M638.96,652.98c1.76-1.59,3.5-3.23,5.22-4.9A302.67426,302.67426,0,0,1,212.95,223.36c.17-.19.35-.37.53-.56.43-.45.86-.89,1.3-1.34,1.1-1.13,2.2-2.25,3.32-3.36,1.1-1.1,2.22-2.2,3.33-3.29q.015-.03.03-.03c.41-.4.82-.8,1.24-1.2a.94281.94281,0,0,1,.1-.1c.34-.33.68-.65,1.02-.98.33-.32.66-.64.99-.95.31-.3.62-.59.93-.88.01-.02.03-.03.04-.04l.66-.63c.19-.18.39-.37.59-.55.85-.81,1.7-1.6,2.56-2.38.17-.17.34-.33.52-.49.17-.16.35-.32.52-.48.64-.59,1.27-1.17,1.91-1.73.76-.7,1.53-1.39,2.31-2.08q.54-.495,1.08-.96c.91-.81,1.82-1.61,2.74-2.4.99-.87,2-1.73,3-2.58,1.37-1.18,2.76-2.34,4.15-3.49q1.8-1.5,3.63-2.97c1.22-.99,2.44-1.96,3.67-2.93,1.22-.97,2.46-1.94,3.7-2.89.9-.7,1.81-1.39,2.72-2.08q4.245-3.225,8.58-6.32c1.23-.89,2.47-1.76,3.71-2.63q3.915-2.73,7.9-5.38,1.965-1.305,3.94-2.58c1.31-.86,2.64-1.7,3.97-2.54,1.32-.84,2.66-1.66,4-2.49,1.33-.82,2.68-1.63,4.03-2.44,1.12-.67,2.25-1.34,3.38-2q6.435-3.765,13.04-7.3c1.39-.75,2.79-1.48,4.19-2.21s2.8-1.45,4.21-2.16,2.82-1.41,4.24-2.11q2.13-1.035,4.27-2.06,2.13-1.02,4.28-2.01s0-.01.01,0c1.44-.66,2.88-1.32,4.33-1.96,1.15-.52,2.31-1.03,3.47-1.53.29-.14.59-.27.88-.39.2-.09.39-.17.59-.25l.48-.21c.59-.25,1.19-.51,1.79-.76.44-.19.88-.37,1.31-.55.17-.07.33-.14.5-.21.23-.1.46-.19.69-.29.13-.05.26-.11.39-.16l1.32-.54a2.77288,2.77288,0,0,1,.26-.1c.67-.28,1.34-.55,2.01-.82.43-.17.85-.34,1.28-.51l.06-.03c.49-.19.97-.38,1.45-.57.71-.28,1.42-.55,2.13-.83.15-.06.3-.11.45-.17.58-.23,1.16-.45,1.75-.67.41-.15.81-.3,1.21-.46.36-.13.72-.26,1.07-.4.12-.04.23-.08.34-.12a2.18971,2.18971,0,0,1,.33-.12c.31-.12.62-.24.93-.35.39-.14.78-.28,1.16-.42.83-.3,1.66-.6,2.48-.89l.24-.09c.28-.1.56-.2.83-.29,1.16-.41,2.32-.82,3.48-1.21q2.805-.96,5.61-1.88c1.15-.37,2.31-.75,3.46-1.11,1.25-.39,2.5-.78,3.74-1.16.91-.28,1.82-.55,2.73-.82.85-.25,1.69-.5,2.54-.75.25-.07.5-.14.75-.22,1.31-.37,2.62-.74,3.93-1.1,1.26-.35,2.52-.69,3.78-1.03.88-.24,1.76-.47,2.65-.69.89-.24,1.79-.47,2.69-.69,1.37-.35,2.73-.68,4.1-1.01.9-.22,1.81-.44,2.72-.64q4.275-1.005,8.57-1.9c.97-.21,1.95-.41,2.93-.61,2.91-.58,5.83-1.14,8.75-1.66q1.395-.255,2.79-.48,10.455-1.815,20.98-3.04c1.55-.18,3.1-.36,4.66-.52,1.46-.15,2.92-.3,4.38-.44.09-.01.19-.02.29-.03l3.72-.33.33-.03c.12-.01.25-.02.37-.03a2.10522,2.10522,0,0,0,.25-.02.4102.4102,0,0,0,.11-.01c.14-.01.29-.02.43-.03,1.01-.08,2.02-.16,3.04-.23.36-.03.73-.06,1.1-.08a.8083.8083,0,0,1,.16-.01c.44-.04.88-.07,1.33-.09,1-.07,2-.14,3.01-.19.34-.03.68-.04,1.02-.06h.02q.855-.06,1.71-.09c.25-.02.51-.03.77-.04.88-.05,1.77-.09,2.65-.12.27-.02.53-.03.8-.04q.465-.03.93-.03c.96-.05,1.93-.08,2.9-.11a3.84625,3.84625,0,0,1,.48-.01c.42-.02.84-.04,1.26-.04.11-.01.22-.01.34-.01,1.2-.03,2.4-.06,3.61-.08a.60542.60542,0,0,1,.19,0c-105.28,2.37-197.29,58.49-249.68,142A302.64861,302.64861,0,0,0,497.52,706.66c.83.01,1.65.01,2.48.01,1.65,0,3.31-.02,4.96-.06s3.3-.1,4.95-.18c.83-.03,1.65-.08,2.48-.13.83-.04,1.65-.1,2.47-.16.79-.05,1.58-.11,2.36-.18.07-.01.15-.01.22-.02A205.00294,205.00294,0,0,0,566,695.9q1.185-.39,2.37-.81c1.58-.55,3.16-1.12,4.72-1.72q1.17-.435,2.34-.9c.78-.3,1.56-.62,2.34-.93,1.86-.75,3.7-1.53,5.54-2.35,1.35-.58,2.69-1.19,4.02-1.82a204.608,204.608,0,0,0,40.27-24.78c.65-.5,1.3-1.01,1.94-1.54.64-.51,1.29-1.03,1.92-1.57.64-.52,1.28-1.05,1.91-1.59.63-.53,1.26-1.06,1.88-1.61.63-.54,1.25-1.08,1.87-1.64C637.74,654.1,638.35,653.54,638.96,652.98Z" transform="translate(-101.33 -101.33)"/></svg>