<svg id="f7ebd1c5-a287-4b0e-9dba-2921214f2307" data-name="Warstwa 1" xmlns="http://www.w3.org/2000/svg" xmlns:xlink="http://www.w3.org/1999/xlink" viewBox="0 0 558.13955 791.63194"><defs><style>.bbfd5f02-9b39-4002-afc2-bb5c86763ab6{fill:url(#e818c13f-d93b-407d-bbf3-a14b99a8bcf5);}.bce1eb0e-a16f-41f6-809a-655ae43dbdf8{fill:url(#e68bab2e-37cb-4679-9dde-dca595e0de7f);}.e8e11250-a8d2-4bee-9b76-2231c6c03747{fill:url(#fb86d82b-95ef-46af-bf6c-ab19a7fa255c);}</style><linearGradient id="e818c13f-d93b-407d-bbf3-a14b99a8bcf5" x1="273.67106" y1="764.76977" x2="273.67106" y2="212.92597" gradientUnits="userSpaceOnUse"><stop offset="0" stop-color="#2ab1ce"/><stop offset="0.5" stop-color="#0079ac"/><stop offset="1" stop-color="#55448c"/></linearGradient><linearGradient id="e68bab2e-37cb-4679-9dde-dca595e0de7f" x1="220.93022" y1="302.0919" x2="717.88485" y2="302.0919" gradientUnits="userSpaceOnUse"><stop offset="0" stop-color="#55448c"/><stop offset="0.5" stop-color="#3ad59f"/><stop offset="1" stop-color="#f8ff00"/></linearGradient><linearGradient id="fb86d82b-95ef-46af-bf6c-ab19a7fa255c" x1="285.65952" y1="917.81872" x2="739.46988" y2="431.16669" gradientUnits="userSpaceOnUse"><stop offset="0" stop-color="#d11e00"/><stop offset="0.25" stop-color="#c74200"/><stop offset="0.5" stop-color="#f86600"/><stop offset="0.69884" stop-color="#d56300"/><stop offset="0.7365" stop-color="#d66900"/><stop offset="0.7887" stop-color="#da7b00"/><stop offset="0.84942" stop-color="#e19900"/><stop offset="0.91655" stop-color="#eac200"/><stop offset="0.98817" stop-color="#f6f600"/><stop offset="1" stop-color="#f8ff00"/></linearGradient></defs><path class="bbfd5f02-9b39-4002-afc2-bb5c86763ab6" d="M326.4119,235.16977v457.24c-34.61439,23.82-82.0465,56.42-105.48168,72.36v-546.27C290.62715,199.49977,326.4119,235.16977,326.4119,235.16977Z" transform="translate(-220.93022 -104.18403)"/><path class="bce1eb0e-a16f-41f6-809a-655ae43dbdf8" d="M710.84047,411.83977c28.17277,54.07-37.25471,88.16-37.25471,88.16l-347.17386-264.83s-35.78475-35.67-105.48168-16.67v-44.01c0-57.08,60.409-90.29,103.89936-57.11Z" transform="translate(-220.93022 -104.18403)"/><path class="e8e11250-a8d2-4bee-9b76-2231c6c03747" d="M751.55007,442.88977c36.69294,27.99,36.69294,86.23,0,114.22l-426.72049,325.51c-38.43443,29.32-90.06109,6.8-101.55865-38.22l103.141-79.57,347.17386-264.83s65.42748-34.09,37.25471-88.16Z" transform="translate(-220.93022 -104.18403)"/></svg>