<svg id="b54b3e19-db4d-4af8-9f19-d3b76cebdd92" data-name="Warstwa 1" xmlns="http://www.w3.org/2000/svg" xmlns:xlink="http://www.w3.org/1999/xlink" viewBox="0 0 2718.63964 1693.18848"><defs><style>.b26b7f7d-f77b-4830-8e39-bf2adc3d29a7{fill:url(#e0bd86b6-536b-4788-97f7-9e38fb452e19);}</style><linearGradient id="e0bd86b6-536b-4788-97f7-9e38fb452e19" x1="1991.1318" y1="2372.36714" x2="1072.43561" y2="781.13866" gradientUnits="userSpaceOnUse"><stop offset="0" stop-color="#f12711"/><stop offset="1" stop-color="#f5af19"/></linearGradient></defs><path class="b26b7f7d-f77b-4830-8e39-bf2adc3d29a7" d="M709.06628,1145.69745c-5.64039,8.767-11.93585,14.74927-14.12334,13.33881-2.17411-1.406.58846-9.67646,6.23458-18.45212q19.21683-29.64738,38.6773-59.14568c5.76516-8.71955,12.19649-14.62206,14.35923-13.18622s-.75549,9.65671-6.51273,18.36423Q728.25289,1116.08435,709.06628,1145.69745Zm186.427-157.68781a1.91345,1.91345,0,0,0-1.87744-1.24293c-1.81076.02951-4.65129,2.385-7.24819,6.12733L867.281,1020.62615l-21.30056,31.334q-21.21684,31.39529-42.118,63.01871-20.90658,31.61754-41.53171,63.43375l-40.88761,63.919c-5.5845,8.73685-8.3373,16.95116-6.14838,18.34664s8.48708-4.54994,14.06686-13.2793l40.857-63.87164q20.60654-31.77507,41.48566-63.36333,20.88246-31.58091,42.06495-62.93949l21.27085-31.29032,17.88479-25.99349a17.61432,17.61432,0,0,0,3.02086-8.6467A7.02282,7.02282,0,0,0,895.49332,988.00964ZM655.8357,1300.48449l-57.75988,93.1604c-19.20441,31.08394-38.66812,62.00557-57.44832,93.35747q-28.31513,46.93328-56.09064,94.183c-8.1627,13.86355-17.55082,23.482-21.02679,21.45059-3.46671-2.02645.30223-14.94981,8.47739-28.83457q35.24334-59.88108,71.31077-119.31615c5.607-9.28457,8.30675-17.79606,5.56488-18.623-2.45739-.72258-8.75344,5.68787-13.93392,14.29256q-20.99446,34.54311-41.66549,69.25434c-8.26221,13.85126-17.70926,23.45027-21.17765,21.40025l-.0048-.00286c-3.45375-2.04279.39231-14.97742,8.669-28.85284q21.58974-36.238,43.51817-72.30593l44.39312-71.67622,44.42419-71.65021,11.12362-17.9007,11.34646-17.75169,22.69309-35.50322c5.82326-9.11031,8.60166-17.66776,5.92293-18.56022-2.44771-.81526-8.77364,5.56463-14.19541,14.04674l-32.318,50.56187c-10.63912,16.94443-21.11712,33.99814-31.68334,50.99207L522.70533,1424.256c-41.85987,68.36787-82.53877,137.4035-122.64639,206.582l-29.9614,51.92569c-9.907,17.21391-20.01749,34.908-29.83487,52.45868q-29.5523,52.747-57.77,105.8833-28.32763,53.13309-55.77755,106.65294-27.504,53.56472-54.08162,107.563c-4.82745,9.77185-6.59394,18.6269-3.82054,19.17007,2.54116.50293,8.08032-6.57781,12.54068-15.59737q31.5974-64.13985,64.46832-127.6985c7.41639-14.37346,16.39368-24.478,19.94617-22.62136l.005.00252c3.57455,1.86776.38844,14.9658-7.01179,29.30795q-51.15619,98.92378-99.28041,199.39c-4.32317,9.08118-6.39895,17.81854-4.41851,19.49014,2.15727,1.82331,7.95552-5.05118,12.62112-14.85349q27.56466-57.6486,56.17592-114.71748c7.22428-14.41809,16.026-24.61574,19.61861-22.79715,3.58146,1.81472.60917,14.93027-6.59877,29.31569q-23.67487,47.29748-46.67323,94.93387c-15.30835,31.77039-30.39353,63.6499-44.97935,95.79172-4.313,9.48191-5.78549,18.048-3.42626,19.09009,2.38559,1.054,7.69257-5.76407,11.98885-15.2091,12.74071-28.08657,25.89562-56.01117,39.23894-83.84417q20.01238-41.75253,40.6289-83.2222,41.14828-82.97368,84.41554-164.8745c7.50294-14.21739,16.50178-24.18673,20.05276-22.29153,3.54357,1.89083.311,14.90115-7.17452,29.0857q-48.178,91.32632-93.82817,183.91912c-4.7806,9.67688-6.50692,18.44977-3.73719,19.00035,2.53863.50815,8.03726-6.48959,12.45452-15.42175q16.69869-33.88684,33.74448-67.6112c7.22158-14.29736,16.04507-24.37177,19.62282-22.54072l.005.00253c3.58078,1.8324.57483,14.84894-6.62824,29.1096q-32.867,65.05741-64.44007,130.71961c-4.3063,8.95439-6.31406,17.59831-4.344,19.259,2.1715,1.82365,7.89524-4.95032,12.544-14.61676q27.81835-58.00419,56.81557-115.6117,28.89363-57.5496,58.88748-114.63919,29.93668-57.07226,60.85693-113.4775,15.47832-28.16372,31.267-56.03179l15.98622-27.92948,16.14558-28.041q64.64436-112.08627,131.44278-222.40094L675.823,1377.04343l17.02071-27.454c5.69335-9.13977,11.28239-18.34041,17.14277-27.38278l34.811-54.45928c5.80346-9.07924,8.52933-17.58138,5.8363-18.45153-2.455-.79312-8.73374,5.52911-14.10441,13.93115l-25.88821,40.50069-12.94432,20.25017-12.68519,20.40339L634.374,1426.05586c-16.83474,27.24681-33.90983,54.37871-50.34956,81.80173q-24.81834,41.07907-49.22777,82.44886c-8.15126,13.78618-17.52305,23.349-20.99809,21.31008l-.00488-.00278c-3.46157-2.02922.29634-14.90577,8.46072-28.71418q18.0038-30.48449,36.209-60.832l18.26767-30.30614c6.11168-10.08477,12.22057-20.16911,18.47949-30.18265l74.63865-120.38405c5.66439-9.13641,8.30624-17.70135,5.62718-18.57563-2.44789-.79876-8.65258,5.61455-13.927,14.12183l-64.05727,103.318-16.01459,25.82929-15.779,25.9543q-15.72824,25.98565-31.26485,52.09541c-8.22181,13.7834-17.63956,23.33274-21.10745,21.282h-.00008c-3.45408-2.042.36267-14.927,8.59887-28.73455,16.24729-27.23764,32.55114-54.43941,49.15563-81.45935l50.13985-80.87029,25.06983-40.43518c8.3954-13.45415,16.60617-27.02381,25.23434-40.3324l51.24884-80.17685c5.59679-8.75605,8.35136-16.9776,6.172-18.38351s-8.47891,4.53722-14.08058,13.30085ZM869.966,1059.27q-44.84336,66.20181-88.35336,133.44981c-5.596,8.69838-8.331,16.926-6.15494,18.329,2.18564,1.41341,8.4534-4.526,14.04379-13.21573q43.51868-67.11413,88.24779-133.29053c5.78225-8.52753,8.74131-16.61838,6.60147-18.07762C882.20173,1044.99821,875.75769,1050.72852,869.966,1059.27Zm-69.46616-25.597-25.93064,38.756c-5.77923,8.67515-8.66749,16.89253-6.50685,18.32037,2.17117,1.43429,8.565-4.45341,14.33592-13.1161l25.89815-38.70734c5.82291-8.63015,8.80858-16.80384,6.66553-18.258C812.80839,1019.2074,806.33194,1025.02926,800.49985,1033.673Zm-64.84223,97.852c-6.33367,9.72528-12.69942,19.446-18.94318,29.217L697.9771,1190.0553l-37.47419,58.62683c-25.21994,38.9291-49.36584,78.56241-73.87786,117.95571-5.48558,8.84764-8.14174,17.12568-5.93253,18.489s8.443-4.69742,13.92332-13.53665c24.49258-39.36189,48.61743-78.9617,73.82037-117.86394l37.44707-58.58458,18.72371-29.2922c6.23947-9.76418,12.59655-19.47179,18.92407-29.18748,5.67812-8.71968,8.55737-16.92144,6.383-18.348C747.74762,1116.89218,741.34289,1122.79431,735.65762,1131.52494ZM869.805,1700.12917l2.06358-8.41442,2.2178-8.40583,4.43527-16.81184,8.86886-33.6241a68.84478,68.84478,0,0,0,1.49128-7.10347,45.84807,45.84807,0,0,0,.62778-5.99137c.09513-3.48388-.47229-5.80919-1.72507-6.14888s-2.95384,1.37122-4.6917,4.41262a42.26285,42.26285,0,0,0-2.57374,5.46976,68.94968,68.94968,0,0,0-2.208,6.92331l-8.8846,33.68353-4.443,16.84155-2.22168,8.42074-2.06863,8.43454c-2.42936,9.97944-2.35662,18.57605.16307,19.20062S867.38284,1710.08,869.805,1700.12917Zm42.7653-157.35952,21.482-76.48772,10.74015-38.24407,5.36991-19.12217,5.61051-19.0144,22.59375-76.09162c7.88422-26.05221,15.34851-52.60011,21.96421-79.57138q4.97238-20.24,9.22985-40.91135c2.87732-13.99631,5.35947-28.2903,7.34374-42.6625,1.97214-14.30982,3.52353-29.12829,4.29619-44.1553a420.42689,420.42689,0,0,0-.08587-45.56613,437.18966,437.18966,0,0,0-4.91025-45.03992c-.591-3.71321-1.24377-7.41033-1.88628-10.95256l-1.01394-5.40337-.64234-3.27266-1.018-4.90225c-2.72881-13.00662-6.021-25.8558-9.89593-38.179l-1.4608-4.61291-1.55593-4.51887c-1.01192-3.04321-2.1316-5.95588-3.22552-8.89971-1.05788-2.99164-2.30855-5.72955-3.46376-8.59319a40.29168,40.29168,0,0,0-1.905-4.05235L988.1438,918.59a78.01468,78.01468,0,0,0-19.45209-22.86277,80.77709,80.77709,0,0,0-11.83087-7.75642,77.48324,77.48324,0,0,0-14.26166-5.895,74.85124,74.85124,0,0,0-15.60057-3.06725l-1.98309-.19527c-.66019-.04525-1.31869-.05539-1.97821-.08481-1.31634-.0357-2.64126-.13087-3.95053-.11774-2.60657.10473-5.2326.16509-7.7549.46286-.98616.11218-1.99606.15381-2.92682.344q-1.39679.28419-2.75912.56143a46.6714,46.6714,0,0,0-5.039,1.3509,27.11375,27.11375,0,0,0-4.26892,1.67834,26.27636,26.27636,0,0,0-3.46,1.82718c-.99483.62041-1.88308,1.22895-2.6506,1.816a6.20583,6.20583,0,0,0-1.07085,1.01723q-.49186.54463-.88463,1.04475c-1.04593,1.3314-1.54558,2.40789-1.41391,3.12272s.87815.99988,2.08546.9a8.62957,8.62957,0,0,0,.99037-.14624,5.18734,5.18734,0,0,1,1.14552-.18281,23.1264,23.1264,0,0,0,2.7055-.38683c1.09139-.22815,2.21342-.46269,3.37435-.70536,1.24175-.27937,2.53115-.64768,4.05105-.891,1.48723-.27866,2.99164-.65817,4.71308-.918q1.26847-.23634,2.56794-.47843c.865-.17915,1.80714-.22486,2.725-.359,2.34746-.35892,4.7982-.458,7.22967-.60559,1.22163-.03426,2.45917.04054,3.68812.05548.61557.01932,1.23047.01827,1.84671.0543l1.85143.17081a63.424,63.424,0,0,1,14.53981,2.90729,64.13769,64.13769,0,0,1,13.17145,5.84375,64.94924,64.94924,0,0,1,10.69385,7.84836,83.025,83.025,0,0,1,17.20533,22.123l1.77279,3.64918a40.91288,40.91288,0,0,1,1.69787,3.75353c1.03381,2.63663,2.15113,5.16858,3.09974,7.91183.98027,2.70343,1.98343,5.38085,2.89062,8.1675l1.3948,4.14151,1.31146,4.22009c3.47908,11.27217,6.44681,22.98467,8.9261,34.83162l.92336,4.46335.61422,3.125.9971,5.3138c.63359,3.49386,1.27307,7.11547,1.85176,10.75194a427.7976,427.7976,0,0,1,4.806,44.07612,411.03564,411.03564,0,0,1,.08368,44.55c-.75683,14.71547-2.27673,29.252-4.22076,43.35894-1.955,14.1582-4.39975,28.24088-7.24154,42.06394q-4.18743,20.47949-9.1497,40.55515c-6.56586,26.768-13.98217,53.14967-21.83439,79.09564l-22.61514,76.16377-5.61657,19.03562-5.37429,19.13715-10.74874,38.274-21.49891,76.54774c-2.798,9.96185-3.03752,18.59735-.535,19.28759S909.77485,1552.72223,912.57026,1542.76965Zm-58.28706,30.28484,49.10621-174.84342c8.47368-29.05312,17.175-58.03737,25.75124-87.05942,8.79494-28.98046,17.26392-58.20035,24.49333-87.71825q5.4439-22.14487,9.94729-44.53548c2.94988-14.96235,5.38034-30.03768,7.18227-45.201a418.07948,418.07948,0,0,0,3.06943-45.8061,373.31441,373.31441,0,0,0-2.41211-45.90263q-1.287-11.42084-3.24437-22.74293c-.6415-3.77213-1.336-7.51863-2.061-11.27317l-1.20723-5.9705q-.62205-3.02905-1.30792-6.04133c-1.7935-8.04219-3.87492-15.99932-6.23686-23.81319a193.5108,193.5108,0,0,0-8.23864-22.55217,80.09112,80.09112,0,0,0-5.15708-10.39389,29.07828,29.07828,0,0,0-8.41072-8.125,28.09569,28.09569,0,0,0-11.10249-4.141,30.85915,30.85915,0,0,0-11.84871.46656,29.49282,29.49282,0,0,0-10.49652,5.14627c-.73764.6263-1.49734,1.23312-2.2168,1.87538l-1.93973,2.12035c-1.28132,1.42923-2.42373,3.04321-3.64241,4.55575l-7.20348,9.23469-7.17865,9.83653-18.55189,26.73606L844.369,1011.68876q-16.94759,24.82226-33.68109,49.78711c-5.78082,8.63533-8.70444,16.80982-6.54549,18.24772,2.16224,1.44009,8.58238-4.391,14.35453-13.01344q16.70676-24.93627,33.63571-49.71992L869.115,992.24446l15.68054-22.61635,11.861-16.94216c1.00923-1.39623,1.93873-2.85274,3.01353-4.19942l1.63061-2.006c.61-.60643,1.25665-1.17865,1.88316-1.76964a24.46368,24.46368,0,0,1,9.01492-4.88529,25.036,25.036,0,0,1,10.24455-.54068,22.75275,22.75275,0,0,1,9.55683,3.70537,24.084,24.084,0,0,1,7.08158,7.41206,72.927,72.927,0,0,1,4.09146,9.48313,286.65071,286.65071,0,0,1,11.59346,39.6669l1.08264,5.05568,1.03818,5.15944c.71037,3.678,1.39565,7.37519,2.02317,11.06587q1.90127,11.06474,3.16928,22.21521a363.93983,363.93983,0,0,1,2.3525,44.75386,408.71751,408.71751,0,0,1-3.0041,44.78413c-1.77128,14.90594-4.16319,29.7463-7.07014,44.49119-2.93642,14.75753-6.2542,29.47136-9.85367,44.11194-7.17924,29.30947-15.57345,58.279-24.36368,87.24463-8.586,29.05454-17.29785,58.07449-25.78021,87.15757l-49.14476,174.98006c-2.809,10.00175-3.05538,18.66208-.55033,19.343S851.47668,1583.047,854.2832,1573.05449Zm-89.44551,266.08639c4.47627-25.36112,9.79727-50.39274,15.4891-75.39826l18.06849-74.2019c1.53631-6.1733,2.945-12.38885,4.58638-18.52738l4.8626-18.436,9.726-36.87175,2.4334-9.21722,2.57248-9.16,5.145-18.32,10.29026-36.6399c2.812-10.01236,3.064-18.69315.56287-19.38852s-6.8105,6.86539-9.625,16.887l-10.29809,36.66852-5.14892,18.33427-2.57442,9.16713-2.43769,9.23313-9.74305,36.93607-4.87094,18.4682c-1.64391,6.14855-3.05731,12.38237-4.59708,18.56948l-18.11175,74.38062c-5.7261,25.15571-11.07278,50.30721-15.58558,75.87055-1.90093,10.4588-1.12162,19.35207,1.41079,19.74539C759.589,1857.65463,762.9531,1849.50724,764.83769,1839.14088Zm103.32707-404.13349,9.25208-32.94067,4.64607-16.46575,4.86833-16.41363,19.47439-65.65463c3.24909-10.97874,6.55635-21.68454,9.65339-32.52066q4.68169-16.222,8.9959-32.50013c5.73275-21.68875,10.92233-43.52087,15.22156-65.30416a527.11651,527.11651,0,0,0,8.82407-65.224,350.33921,350.33921,0,0,0-1.64972-64.69654q-.94759-8.06137-2.24525-16.09781c-.43019-2.6834-.88715-5.33914-1.38031-8.057l-.74775-4.04566-.75633-3.90464c-1.39463-7.06113-3.05933-14.10891-5.09849-21.02991q-1.53177-5.19312-3.36863-10.28963c-.61523-1.69652-1.24848-3.38694-1.922-5.06132a23.48757,23.48757,0,0,0-1.07557-2.48223l-.60041-1.21313c-.23572-.38355-.50411-.74795-.75448-1.12292a16.66116,16.66116,0,0,0-3.73972-3.87619,17.068,17.068,0,0,0-4.8328-2.38171,17.6977,17.6977,0,0,0-5.33152-.78428,17.08816,17.08816,0,0,0-5.29482.99992,11.89907,11.89907,0,0,0-6.601,6.75031,13.99711,13.99711,0,0,0-1.189,7.298c.78941,3.6355,3.12575,2.68579,7.60345,1.156a11.90772,11.90772,0,0,1,13.78947,4.33985c.17982.26931.37261.531.54182.80654l.43137.87133a16.87372,16.87372,0,0,1,.7725,1.78282c.48373,1.20264.9385,2.41677,1.38048,3.63529q1.32114,3.65742,2.41952,7.39046c1.46332,4.96758,2.663,10.04069,3.65924,15.097l.72956,3.76423.73376,3.9709c.48593,2.67725.9301,5.25983,1.35035,7.88105q1.26355,7.842,2.18986,15.6989,1.85352,15.71187,2.25989,31.45554c.2694,10.49386.05052,20.94239-.65429,31.53025a517.88579,517.88579,0,0,1-8.66951,64.03438c-4.245,21.5096-9.39334,43.17848-15.08441,64.70719q-4.27065,16.16364-8.93908,32.2942c-3.08121,10.781-6.36263,21.40159-9.62055,32.40963l-19.49671,65.72963-4.87388,16.4325-4.64986,16.479-9.2594,32.96635c-2.81486,10.02162-3.07221,18.721-.57508,19.43037S865.35269,1445.01983,868.16476,1435.00739ZM755.30014,1765.7843c1.48126-6.77994,3.1095-13.32863,4.71342-19.91553l4.81175-19.76206,9.62679-39.5232c1.61983-6.58059,3.17627-13.18863,4.84863-19.74666l5.17123-19.60757,10.34422-39.21483a71.34279,71.34279,0,0,0,1.52529-7.22966,46.39965,46.39965,0,0,0,.64158-6.04256c.1022-3.51006-.46075-5.85154-1.71353-6.19115s-2.9583,1.38731-4.70323,4.455a42.77309,42.77309,0,0,0-2.58755,5.52085,71.45656,71.45656,0,0,0-2.242,7.04951l-10.36224,39.28284-5.18,19.64176c-1.67581,6.57125-3.23671,13.19671-4.86033,19.79254l-9.64994,39.61748-4.82295,19.80921c-1.60753,6.60256-3.23806,13.16034-4.73059,19.98987-2.39233,10.484-2.09111,19.38482.42219,19.92909C749.118,1784.17488,752.92423,1776.19478,755.30014,1765.7843ZM817.31287,1527.443l23.494-83.65071,11.74778-41.8251,5.8741-20.91247,6.17515-20.86195,24.7123-83.131c8.02236-27.00722,15.37393-54.0381,21.56794-81.01375q2.32872-10.1151,4.41271-20.2138c1.40423-6.73053,2.64665-13.23981,3.79175-19.87605q1.71373-9.90978,3.054-19.81956.66928-4.9532,1.24242-9.90275.56372-4.89435,1.01125-9.76317a342.85657,342.85657,0,0,0,1.46686-38.42,333.62308,333.62308,0,0,0-3.00057-38.18632c-.42043-3.18493-.91477-6.37033-1.42527-9.55645l-.81106-4.788-.89069-4.9-1.07548-5.54527-.42194-1.88674a53.656,53.656,0,0,0-2.2945-7.37834,6.14166,6.14166,0,0,0-.91013-1.69522,4.68637,4.68637,0,0,0-5.25054-1.40381,5.66878,5.66878,0,0,0-2.79911,2.55266l-2.21746,3.16789-2.77579,4.0015q-.32745.49633-.64723.98073-.50322.7929-.99415,1.56628c-.63873,1.03592-1.22854,2.05327-1.76489,3.03993a42.49025,42.49025,0,0,0-2.53333,5.4607c-1.21068,3.268-1.42368,5.65534-.35325,6.38957s3.221-.32306,5.83159-2.62434a44.83677,44.83677,0,0,0,4.18911-4.31278c.73133-.85045,1.47225-1.76159,2.213-2.7249q.5483-.7326,1.10991-1.48311l.5526-.76891c.07593-.10288.02576-.02656.04226-.05043l.00345-.00509.00177-.00042.00033.00117.00009.0003c-.00169-.01347.00539.03-.00977-.02879l.86182,4.47134.8741,4.80784.79085,4.66914c.4972,3.10446.97909,6.20718,1.388,9.30705a324.20661,324.20661,0,0,1,2.91714,37.1108c.11129,6.18095.06642,12.3074-.181,18.5257q-.36786,9.32794-1.2484,18.84729-.43592,4.75467-.98868,9.54538-.56182,4.85532-1.21969,9.72125-1.311,9.72882-3.0015,19.47793c-1.12751,6.53319-2.34551,12.91679-3.73467,19.575q-2.05167,9.98718-4.3686,20.01125c-6.13625,26.72494-13.43681,53.57566-21.41716,80.44035l-24.72148,83.16235-6.18205,20.88553-5.87882,20.92871-11.75712,41.8576-23.51222,83.71579c-2.82008,10.04157-3.07693,18.74-.57382,19.428S814.49532,1537.47534,817.31287,1527.443Zm12.11979,237.18911,10.91223-44.8005c2.43829-10.01262,2.37431-18.64558-.14244-19.2817s-6.53951,6.98856-8.985,17.03l-10.93841,44.90952c-2.51263,10.056-2.20467,18.61426.31527,19.18168C823.14268,1782.23077,826.92492,1774.66739,829.43266,1764.63213Zm28.15-112.70837,8.81548-33.38568,9.36472-33.34064,18.72876-66.68145,18.72783-66.68178,9.36362-33.34089,4.68177-16.67057,4.89745-16.58984c2.94232-9.91934,3.30937-18.55736.81981-19.29315s-6.89621,6.72018-9.84256,16.653l-4.90292,16.60853-4.68548,16.68354-9.371,33.367-18.74265,66.734-18.74324,66.73373-9.37178,33.36682-8.831,33.44377c-2.63932,10.006-2.74178,18.64533-.22865,19.29583S854.94877,1661.909,857.58263,1651.92376Zm102.29158-359.95665c10.182-34.71481,19.43036-69.90149,26.71854-105.93306,3.66514-18.23248,6.60038-36.63611,8.62724-55.32581q1.52142-14.078,2.19323-28.39759c.42547-9.54517.52212-19.18913.24683-28.77459a411.73162,411.73162,0,0,0-5.64587-57.0544c-.78815-4.71393-1.62816-9.23823-2.53586-13.8926l-.9833-4.86609-1.082-5.0351c-.7474-3.34544-1.50643-6.694-2.34223-10.00095a293.5364,293.5364,0,0,0-12.05918-38.10731,96.74552,96.74552,0,0,0-8.47-15.80842c-1.5795-2.22324-3.12364-4.58424-4.77168-6.53825-.81576-1.00905-1.61789-2.07544-2.44578-3.02881l-2.65506-2.8503a47.52515,47.52515,0,0,0-13.79107-9.327,50.39269,50.39269,0,0,0-17.022-4.23684,49.19432,49.19432,0,0,0-17.14421,1.77818c-.66945.19969-1.35683.377-2.01146.59507l-1.904.72813-1.904.72817-1.76169.88863a29.73881,29.73881,0,0,0-3.38,1.87133l-1.58708.99921-.79329.50474-.78352.64975-12.53686,10.3957-1.56713,1.29946-1.56384,1.82819-3.12744,3.67865-6.255,7.35729-15.928,22.82745L838.19974,978.301c-5.90575,8.59934-8.95279,16.75981-6.80554,18.22663,2.13968,1.46211,8.65385-4.3119,14.54933-12.89633l12.37354-17.89338,14.08083-20.19945,5.45645-6.73928,2.72823-3.36969,1.36424-1.67728,1.3676-1.32118,10.94119-10.56913.68376-.66056.70515-.552,1.4118-1.09615a23.50561,23.50561,0,0,1,3.0297-2.04341l1.58657-.96747,1.72826-.80268,1.72827-.80267c.596-.24,1.225-.4347,1.83585-.65425a40.33451,40.33451,0,0,1,15.73829-2.15526,41.43232,41.43232,0,0,1,15.59736,4.04372,38.72118,38.72118,0,0,1,12.30131,9.352l2.26983,2.89638c.69942.97631,1.36718,2.03449,2.05145,3.051,1.382,1.98932,2.66972,4.26168,3.98908,6.43823a113.74608,113.74608,0,0,1,7.09826,14.76944,292.8486,292.8486,0,0,1,10.37377,34.06363c.72569,2.9333,1.38992,5.89691,2.04438,8.85876l.95029,4.45522.87436,4.34363c.88935,4.56021,1.72027,9.03568,2.4904,13.643a402.33843,402.33843,0,0,1,5.51892,55.755,409.9047,409.9047,0,0,1-2.38954,55.90391c-1.99151,18.36373-4.88281,36.50234-8.49659,54.47772-7.21224,35.659-16.39394,70.6089-26.52273,105.13968-2.96,10.08316-3.42284,18.77414-.93379,19.53C952.399,1309.6012,956.89452,1302.11678,959.87421,1291.96711Zm139.95552,302.07671q-20.97275,28.40631-41.74142,56.96508c-6.14055,8.44583-9.3957,16.5395-7.29508,18.05931,2.10566,1.52369,8.76531-4.09473,14.89862-12.53079q20.73837-28.53789,41.70084-56.90961c6.1855-8.39724,9.54673-16.43123,7.45672-17.98177C1112.76967,1580.10307,1106.02247,1585.637,1099.82973,1594.04382ZM1002.87691,1727.742q-18.0082,25.30374-35.865,50.75676l-17.83521,25.53691-17.72475,25.77212q-35.2268,51.64273-68.98882,104.3107-16.87461,26.33306-33.34426,52.93483l-5.975,9.67924-.00286-.001-.00017-.00151.00168.00033a.01433.01433,0,0,1,.00834.00943c-.0016-.03115-.00447.15339-.02265-.33018l-.08789-2.00515-.12384-4.01c-.16307-5.35711-.19927-10.66809-.14766-16.058.096-10.87384.60269-21.87177,1.31785-32.92459.757-11.06393,1.85547-22.21188,3.11321-33.395a51.51162,51.51162,0,0,0,.18361-12.58063c-.4-3.29808-1.29007-5.4354-2.57568-5.61354-1.28578-.17814-2.72461,1.64231-4.01451,4.74238a51.45988,51.45988,0,0,0-2.93094,12.36125c-1.27366,11.31918-2.38635,22.61328-3.15472,33.84339-.72661,11.221-1.24141,22.4003-1.33949,33.47905-.05261,5.50073-.0154,10.937.151,16.41026l.1267,4.09853.08966,2.04926.02736.47229.00186.19329.08831,1.60779c.14455,2.14288.35956,4.28138.65918,6.40826q.38148,2.73219.923,5.43911a6.1675,6.1675,0,0,0,.90543,2.58048,4.57262,4.57262,0,0,0,2.1449,1.66807,4.68986,4.68986,0,0,0,5.08064-1.11429,13.87108,13.87108,0,0,0,1.48909-2.31378l1.411-2.37069,2.85164-4.72369,7.79347-12.65068q16.42011-26.5462,33.26832-52.81411,33.64665-52.56583,68.83746-104.08188l17.68451-25.7137,17.80793-25.49784q17.80893-25.48206,35.82548-50.70061c6.0434-8.50164,9.26049-16.59742,7.14742-18.10949C1015.57321,1713.576,1008.92755,1719.23037,1002.87691,1727.742Zm65.12417-8.65065q-39.35753,54.7141-77.89557,110.02022-38.44352,55.41471-75.14082,112.00314-18.34892,28.29065-36.21645,56.89108l-8.90531,14.3169-8.57791,13.91734q-8.0238,13.0722-15.9294,26.2141l-7.88143,13.15714c-2.59959,4.40193-5.27066,8.76211-7.77949,13.21708a28.90805,28.90805,0,0,1-4.38754,6.25959,23.26081,23.26081,0,0,1-6.075,4.61981,24.31119,24.31119,0,0,1-28.3079-4.51273,22.69886,22.69886,0,0,1-4.34822-6.27255,28.63443,28.63443,0,0,1-2.19221-7.32539q-3.08577-15.02321-5.21265-30.22237-2.43757-17.35712-3.49415-34.87149l-.25164-4.37465-.19506-4.46844c-.147-3.173-.21122-6.349-.29709-9.52383-.1187-6.35253-.13487-12.69883.01549-19.06416a697.14594,697.14594,0,0,1,5.85987-76.20645c3.25869-25.3187,7.55749-50.52761,12.56085-75.61042,2.473-12.54628,5.15953-25.0599,7.94079-37.5481l2.11131-9.35882c.71112-3.11868,1.50331-6.22735,2.251-9.34148l4.549-18.67724c2.45369-10.07457,2.39872-18.74248-.12283-19.35982s-6.56047,7.07291-9.02115,17.17628l-4.55961,18.72245c-.74994,3.1239-1.5423,6.233-2.25738,9.36909l-2.12427,9.41573c-2.79717,12.55967-5.49762,25.1382-7.98759,37.7696-5.03569,25.24638-9.37188,50.66189-12.66491,76.24829a706.43414,706.43414,0,0,0-5.93454,77.23252c-.15221,6.46248-.13647,12.94937-.01507,19.42548.08713,3.23781.15338,6.47713.30282,9.71274l.229,5.14513.31057,5.23016c.87865,13.94311,2.37262,27.80186,4.42828,41.44795a320.51838,320.51838,0,0,0,7.27176,33.89678,31.72961,31.72961,0,0,0,2.84112,7.87175,26.64351,26.64351,0,0,0,5.18259,6.79788,29.63542,29.63542,0,0,0,32.53893,5.30205,26.9666,26.9666,0,0,0,7.00447-4.799,31.56041,31.56041,0,0,0,5.14084-6.51231c2.94416-4.56307,6.23063-9.439,9.36648-14.17731l2.37549-3.57523,1.18778-1.78761,1.1925-1.91136,4.77227-7.70844,4.77185-7.71315,4.7604-7.84768,9.55068-15.67246,9.09355-14.75684,8.88461-14.28373q17.82358-28.5336,36.13352-56.76093,36.60866-56.456,74.97312-111.75311,38.45715-55.24081,77.8065-109.89411c6.05468-8.42856,9.28592-16.47383,7.17789-17.99751C1080.71119,1705.06527,1074.06283,1710.65288,1068.00108,1719.09138Zm185.13073-209.499q-92.1191,120.71736-180.367,243.97612c-6.03548,8.425-9.18439,16.496-7.07114,17.99979,2.11695,1.50643,8.68937-4.11612,14.71778-12.53105q44.07255-61.62437,89.12417-122.5473,45.05576-60.94715,91.083-121.21187c6.31111-8.23493,9.75231-16.18481,7.68587-17.75607S1259.44494,1501.355,1253.13181,1509.59241Zm-244.40193,334.719q-57.02655,82.27941-110.15543,167.18357l-13.19157,21.26529-8.60039,14.02981-8.90539,14.72284-4.44748,7.36715-1.11185,1.84182-1.138,1.73374-2.28077,3.44709-9.123,13.78837a18.40091,18.40091,0,0,1-1.14106,1.64264l-1.14367,1.28519-2.28751,2.57038-4.57494,5.14075-4.575,5.14075-.57188.64268-.5206.546-1.03785,1.08567-2.0757,2.1715a33.91567,33.91567,0,0,1-4.45758,4.09869,35.11931,35.11931,0,0,1-5.56236,3.37183,37.43328,37.43328,0,0,1-13.64618,3.43464,40.74468,40.74468,0,0,1-27.463-8.4188,37.6532,37.6532,0,0,1-4.97516-4.78734,34.23389,34.23389,0,0,1-3.69182-5.33051c-.9902-1.7994-1.80336-3.73383-2.69009-5.61219-.881-1.83341-1.72085-3.92073-2.57459-5.92234-.86779-1.95481-1.666-4.16891-2.48-6.32391-.39669-1.10335-.83437-2.10786-1.19747-3.29219l-1.11538-3.49c-.36209-1.17962-.76525-2.2902-1.09366-3.52639l-.9524-3.76364-.94365-3.77407-.77258-3.97578c-2.72359-15.51638-4.77833-31.59461-6.03573-47.92356-.27672-4.08657-.55791-8.17752-.76576-12.27554l-.22966-5.30088-.14607-4.68715c-.18866-6.24612-.23294-12.5143-.173-18.75132.11113-12.4419.67989-24.82587,1.48269-37.16607.84431-12.3343,2.05162-24.59907,3.43068-36.82326a60.95707,60.95707,0,0,0,.31831-13.6631c-.366-3.55485-1.23384-5.85061-2.51953-6.02875-1.2857-.1783-2.74675,1.80075-4.07066,5.15759a60.17968,60.17968,0,0,0-3.06565,13.44355c-1.395,12.36057-2.61651,24.77131-3.47218,37.2718-.81433,12.5084-1.39126,25.07354-1.50432,37.72068-.06095,6.34765-.01566,12.7411.17637,19.10339l.14892,4.77572.24633,5.68982c.2465,4.63277.56952,9.25645.89457,13.8734a518.06375,518.06375,0,0,0,7.18084,53.80784l.93792,4.39688c.37117,1.39177.784,2.73117,1.174,4.09937l1.186,4.084c.41041,1.33418.92319,2.483,1.37973,3.73366l1.40953,3.67978c.4584,1.25758,1.01428,2.25013,1.51662,3.38816,1.03153,2.2,2.04455,4.487,3.139,6.39227,1.07733,1.97434,2.14212,4.07445,3.244,5.80145,1.10764,1.79485,2.14608,3.664,3.35112,5.35408a40.79657,40.79657,0,0,0,4.32491,5.10337,46.18578,46.18578,0,0,0,5.58113,4.66594,49.54748,49.54748,0,0,0,29.672,8.73383,45.84385,45.84385,0,0,0,14.6746-2.83624,42.27,42.27,0,0,0,6.05216-2.91571,36.27175,36.27175,0,0,0,4.93837-3.54778l2.32589-1.90042,1.16295-.95013.58384-.48.6548-.62668,5.23874-5.01329,5.23866-5.0133,2.61938-2.50656,1.30968-1.25337a3.87682,3.87682,0,0,0,.65228-.8331l.65076-.95367,10.41275-15.25977,2.60321-3.81482c.43213-.64268.87166-1.2564,1.29765-1.923l1.25614-2.08512,5.02441-8.34118,10.06026-16.66737,9.58638-15.64872,13.16059-21.21529q52.91437-84.68628,109.90623-166.8054c5.88042-8.47554,8.99413-16.5458,6.8563-18.03472C1021.192,1830.15062,1014.62426,1835.81569,1008.72988,1844.31143Zm222.17776-265.71891q-48.18016,63.99969-95.2925,128.78577c-6.0791,8.36155-9.28457,16.38652-7.184,17.90642,2.10567,1.52361,8.71564-4.02612,14.78766-12.37783q47.058-64.72137,95.19922-128.66007c6.21615-8.24151,9.57721-16.1929,7.50707-17.75927S1237.13136,1570.34083,1230.90764,1578.59252Zm-143.77489,196.07975c-24.28573,34.08005-48.53206,68.35044-72.02189,102.617q-35.33628,51.522-69.07958,104.07111-16.88229,26.26284-33.3291,52.79121l-8.45786,13.687c-4.99183,8.12516-10.00352,16.28719-14.94215,24.54283l-7.42573,12.35872-3.71287,6.17944-1.85639,3.08964-.92824,1.54482c-.31646.48862-.64664.92538-.96924,1.39059l-15.57211,22.00681-.97319,1.37543-.48668.68764-.2433.34381a1.37034,1.37034,0,0,1-.2454.21l-1.96584,1.51081-3.93167,3.02128-7.86333,6.04272-3.93159,3.02128c-.15995.11736-.33641.27108-.48281.35847l-.42556.23218-.85112.46454-1.70233.92891-3.40458,1.85783c-1.1574.56741-2.325,1.09711-3.62549,1.61688a60.419,60.419,0,0,1-18.74222,4.14331,66.27386,66.27386,0,0,1-21.69524-2.26831,64.93125,64.93125,0,0,1-19.28556-8.89395,59.44744,59.44744,0,0,1-7.28683-5.86156c-1.06285-1.017-1.99421-1.97551-2.92059-2.9945l-2.70508-3.17332-1.35254-1.58658c-.44947-.55361-.893-1.21464-1.33982-1.81674l-2.67628-3.69578a19.23457,19.23457,0,0,1-1.30691-2.02653l-1.286-2.14641-1.28594-2.14642a19.34716,19.34716,0,0,1-1.25084-2.25131l-2.34013-4.98618-1.17-2.4931-.97235-2.87142-1.94243-5.74723a26.32332,26.32332,0,0,1-.822-3.07095l-.74917-3.16759c-2.95915-14.97187-5.50427-30.45861-7.31967-46.44576l-.67685-5.99086-.55277-6.05014-.53905-6.05417-.41251-6.09256c-.2779-4.03472-.57213-8.17685-.70018-12.156-.1171-2.43854-.19952-4.87927-.26249-7.32135-.5547-19.64992.02206-38.855,1.29226-57.88381,2.61138-38.04126,8.04956-75.13594,14.828-111.53557,1.94554-10.55208,1.64306-19.43668-.91949-19.96284-2.52558-.50681-6.36,7.5984-8.322,18.238-6.82507,36.65489-12.32024,74.09069-14.96622,112.62714-1.28645,19.279-1.87458,38.76072-1.30969,58.78813.06424,2.48619.14826,4.97087.26721,7.45319.07215,2.0959.18824,4.45631.32243,6.65122l.45722,6.68894.46033,6.68793.60513,6.642.62088,6.63708.76289,6.56552c2.0459,17.52237,4.92675,34.44028,8.26062,50.73808l.853,3.43177a25.48112,25.48112,0,0,0,.93986,3.31441l2.23556,6.1493,1.11918,3.072,1.35455,2.61214,2.70912,5.22426a17.38362,17.38362,0,0,0,1.44927,2.31866l1.49035,2.19086,1.49043,2.191a16.74023,16.74023,0,0,0,1.51384,2.04539l3.09747,3.65722c.517.5925,1.031,1.25673,1.55029,1.79064l1.56123,1.51148,3.12256,3.0228c1.06386.96191,2.13126,1.85058,3.3267,2.82007a79.51133,79.51133,0,0,0,71.828,14.003c1.40111-.41217,2.66433-.81846,3.92131-1.26734l3.71843-1.51771,1.85925-.759.92967-.37934.4648-.18976a6.07735,6.07735,0,0,0,.53306-.34415l4.34806-2.94131,8.69619-5.88277,4.348-2.94147,2.174-1.47073a1.22425,1.22425,0,0,0,.27133-.20946l.26864-.37277.5372-.74539,1.07438-1.49077,17.19025-23.853c.35594-.50512.72123-.97555,1.06951-1.50912l1.01865-1.6977,2.03748-3.39507,4.07478-6.79047,8.14966-13.58076c5.42033-9.07276,10.919-18.03827,16.39915-26.95511l8.49356-13.74544q16.42644-26.45327,33.25157-52.66813,33.69262-52.40067,68.92484-103.83808c23.42552-34.1729,47.6604-68.42789,71.91851-102.46913,6.00669-8.39809,9.166-16.43308,7.0565-17.94616C1099.73174,1760.67453,1093.14651,1766.26425,1087.13275,1774.67227Zm75.6813-225.12883-27.86634,37.33621c-6.20217,8.3677-9.53747,16.40219-7.44982,17.94507,2.08782,1.54288,8.80236-3.98227,14.99729-12.34037l27.83957-37.30026c6.24662-8.31929,9.63091-16.32953,7.56245-17.88891C1175.81915,1535.72982,1169.06758,1541.21472,1162.81405,1549.54344Zm-69.81789,94.26981q-41.11129,56.20358-81.39014,113.0154-20.17138,28.36956-40.07656,57.01534-19.94911,28.73905-39.40542,57.73623c-5.84337,8.67-8.749,16.91555-6.597,18.343,2.17453,1.44278,8.57521-4.45733,14.4036-13.10512q19.43011-28.96067,39.31736-57.60734,19.94533-28.53486,40.02672-56.94437,40.23717-56.75314,81.30982-112.90377c6.13617-8.40162,9.4388-16.44125,7.34694-17.97857C1105.83962,1629.84691,1099.1394,1635.40186,1092.99616,1643.81325ZM878.468,1953.56775q-16.1937,25.40742-32.0387,51.04047l-8.68584,14.18792-7.02644,11.67344-3.47555,5.8592c-.57752.97706-1.10065,1.9878-1.72279,2.93726a12.1663,12.1663,0,0,1-2.24684,2.54377,12.03954,12.03954,0,0,1-12.80558,1.593,11.5656,11.5656,0,0,1-5.01321-4.4644,12.09978,12.09978,0,0,1-1.33149-3.12112c-.28961-1.09829-.47-2.22134-.71028-3.33075q-1.32733-6.68195-2.26529-13.43344-.879-6.31068-1.40566-12.66414-.264-3.17517-.43263-6.35708l-.18892-4.15207-.2081-6.57394c-.43079-17.43717.23033-35.31312,1.53968-53.11937,2.655-35.68522,8.11851-71.60112,15.05251-107.46381a55.30543,55.30543,0,0,0,1.18955-13.05435c-.16113-3.44255-.88252-5.70792-2.15567-5.97134-1.26886-.26316-2.84954,1.52866-4.35866,4.64751a55.89251,55.89251,0,0,0-3.90482,12.59124c-6.98157,36.11373-12.505,72.36958-15.1984,108.55807-1.32754,18.06773-2.00178,36.20331-1.5625,54.03969l.21249,6.71134.23294,5.08249q.24055,4.42913.60235,8.85068.72939,8.84133,1.95708,17.632,1.31117,9.39368,3.15387,18.703c.33464,1.54465.58569,3.10816.98885,4.63732a16.8483,16.8483,0,0,0,1.854,4.34536,16.10115,16.10115,0,0,0,6.97963,6.21564,17.1984,17.1984,0,0,0,9.24509,1.48724,16.12532,16.12532,0,0,0,8.5838-3.705,16.94215,16.94215,0,0,0,3.1282-3.54155c.86619-1.32206,1.59457-2.72915,2.39855-4.0896l4.83886-8.15765,9.7827-16.25234,10.95811-17.90592q15.806-25.5736,31.96512-50.92312c5.616-8.78922,8.41492-17.04671,6.24317-18.44842C890.44669,1938.76106,884.099,1944.755,878.468,1953.56775Zm872.2463-875.2204a26.36846,26.36846,0,0,0-.73326,5.31414c-.04344,2.96285.55024,4.95268,1.793,5.32882,1.24174.37572,2.89213-.91325,4.525-3.26159a35.82415,35.82415,0,0,0,2.60388-4.55633c.43609-.89839.86224-1.8513,1.27223-2.84992.45359-1.089.90837-2.25867,1.334-3.45071l3.04772-8.59824c1.03465-2.85067,2.18412-6.44248,3.27686-9.7766.55075-1.60572,1.09914-3.58179,1.63861-5.454l1.59937-5.66629,1.43537-6.23345c.45175-2.11118.95939-4.08893,1.28469-6.407l.53643-3.42924.65144-4.412c.39937-2.94618.50848-5.822.68224-8.74548q.21694-4.37054.25306-8.73749c-.06448-2.89659-.36688-5.76857-.53862-8.654l-.30391-4.32343-.15187-2.16174a14.02164,14.02164,0,0,0-.23707-2.14115l-1.53489-8.42314-.76744-4.21154a29.59553,29.59553,0,0,0-.91578-4.15106l-2.36732-8.08323c-.70009-2.39014-1.41349-4.70884-2.1284-6.92879-.89439-2.109-1.83862-4.08956-2.73184-5.9715-1.80142-3.75543-3.52135-7.03789-5.06094-9.67654-3.39591-5.00277-6.08263-7.3786-7.0437-6.45857-1.01327.96613-.16939,4.98792,1.6359,10.77665.75835,3.02494,1.77431,6.48634,3.011,10.21942.61187,1.8707,1.30741,3.79348,2.0038,5.7966.53341,2.09868,1.11244,4.25145,1.73626,6.44122L1762.63,976.867a27.37712,27.37712,0,0,1,.81172,3.79668l.677,3.84849,1.35439,7.697c.32631,2.594.38843,5.24779.59553,7.86877.1443,2.63128.41,5.25175.45461,7.89191q-.05633,3.97194-.26014,7.9591c-.16012,2.66206-.26081,5.28564-.63712,7.963l-.59385,4.01156-.49939,3.2043c-.29785,2.164-.78512,4.041-1.21043,6.03064l-1.35237,5.88471-1.52866,5.40821c-.51555,1.78887-1.033,3.66471-1.57108,5.23071-1.06176,3.23477-2.16224,6.684-3.19049,9.51684l-3.02734,8.54049c-.42767,1.19746-.82116,2.39135-1.15942,3.5298C1751.19264,1076.31371,1750.93267,1077.35054,1750.71429,1078.34735Zm-74.32422-188.39649c1.05637-.29448,1.96929-.64011,2.73421-.91334,1.531-.53454,2.42136-1.13415,2.48-1.78323.05842-.64908-.72451-1.28691-2.21915-1.89057a16.84966,16.84966,0,0,0-2.73353-.71394,25.50442,25.50442,0,0,0-3.65891-.49325c-1.347-.0703-2.83842-.161-4.43089-.1238-1.58052.114-3.2836.2127-5.06448.45684a57.05825,57.05825,0,0,0-11.41061,2.80955q-3.76717,1.42077-7.3892,3c-2.38736,1.11829-4.73818,2.26811-7.02283,3.53844a90.0071,90.0071,0,0,0-13.37417,9.02212c-1.09728.85642-2.19541,1.82515-3.28629,2.80167-1.09359.9386-2.17285,2.01-3.25448,3.08366l-1.6221,1.60047-1.59382,1.75-1.59381,1.75a21.95015,21.95015,0,0,0-1.498,1.94378l-11.75089,16.02011c-3.90642,5.3585-7.85745,10.63866-11.72716,16.06152L1580.629,958.043l-11.63606,16.06817q-23.30587,32.11212-46.87881,64.03147-47.15248,63.83275-95.35344,126.89032L1232.472,1418.36662c-6.3261,8.25446-9.77993,16.22093-7.71416,17.79319s8.86717-3.84285,15.19125-12.09471l194.2806-253.32324q48.24306-63.11724,95.4464-127.01394,23.59632-31.95,46.9251-64.09465l11.64769-16.08413,7.07585-9.7995c3.52674-4.93538,7.11779-9.75517,10.67331-14.63844l10.69217-14.60489a31.92371,31.92371,0,0,1,2.79987-3.39528l1.43958-1.618,1.46047-1.49671c.974-1.00325,1.94588-2.00473,2.9285-2.89778.9806-.92407,1.96743-1.84174,2.95376-2.66685a88.87476,88.87476,0,0,1,12.05868-8.83119c2.07014-1.26868,4.21049-2.42406,6.38923-3.54445q3.30323-1.59232,6.76842-3.01492a167.36222,167.36222,0,0,1,19.36318-6.13853C1674.1295,890.50068,1675.34044,890.27519,1676.39007,889.95086Zm34.44163,70.27027c.843-1.09127.66238-3.997-.45663-7.91a27.5754,27.5754,0,0,0-7.73874-12.1898,38.37433,38.37433,0,0,0-11.67445-7.51,30.95165,30.95165,0,0,0-13.7222-2.08648,38.98164,38.98164,0,0,0-13.304,3.85738,41.76866,41.76866,0,0,0-11.3601,7.863,87.84632,87.84632,0,0,0-8.92863,10.60693c-2.80206,3.741-5.67786,7.58131-8.46544,11.50014l-16.41515,22.74306q-30.99353,42.87276-62.455,85.40486-62.91873,85.069-127.69176,168.74425l-128.81161,168.04933-64.40034,84.03174q-32.11741,42.07328-63.82669,84.49577c-6.22877,8.31584-9.55194,16.34132-7.47439,17.88639,2.08849,1.55316,8.78349-3.95271,15.00519-12.259q31.66534-42.37522,63.78241-84.437l64.383-84.00918,128.78249-168.01119q64.7955-83.75586,127.80946-168.9,31.50116-42.56577,62.51624-85.48871l14.5415-20.17613c2.33735-3.26656,4.71713-6.5031,6.99285-9.81326a80.34623,80.34623,0,0,1,7.33886-9.54151,34.57193,34.57193,0,0,1,9.59707-7.18349,32.41039,32.41039,0,0,1,11.40337-3.64834,25.006,25.006,0,0,1,11.79332,1.77507,31.61867,31.61867,0,0,1,9.92287,6.70123c3.40517,3.28566,6.02454,6.32449,8.06067,8.23165C1708.029,960.86717,1709.82736,961.53107,1710.8317,960.22113Zm-68.38925,239.55356q15.11439-33.92271,27.01926-69.05272,5.92023-17.54882,10.92351-35.365c.81071-2.97139,1.665-5.94245,2.4414-8.91373l1.17272-4.45673.58661-2.22829.68746-2.49532c.93009-3.32368,1.80681-6.70317,2.87665-9.90116l1.54414-4.85662,1.612-4.69793,6.30859-17.87621,1.3618-4.15884.68359-2.0786.577-2.00755,1.14376-3.9959c.3396-1.31238.58307-2.57943.88766-3.86929a35.002,35.002,0,0,0,.75986-3.81322c.20407-1.36437.32176-2.23885.49855-3.21836.16568-.99058.16131-1.99993.25021-2.999.04175-1.002.19009-2.00178.14429-3.00562l-.07543-3.01016c-.01717-.50137-.01448-1.00418-.04815-1.50433l-.17983-1.49481-.35947-2.98958c-.08419-1.00249-.38793-1.96819-.57112-2.9541a91.396,91.396,0,0,0-8.36526-22.506,24.82483,24.82483,0,0,0-7.81131-9.00861,20.04075,20.04075,0,0,0-5.36856-2.67417,17.94546,17.94546,0,0,0-5.94052-.75882,11.55,11.55,0,0,0-7.91823,4.25225,8.35837,8.35837,0,0,0-2.302,6.20011,3.866,3.866,0,0,0,2.92379,3.26626,17.22013,17.22013,0,0,0,5.90836.31465,13.02175,13.02175,0,0,1,4.2669.545,14.39623,14.39623,0,0,1,3.8559,1.92071,17.83049,17.83049,0,0,1,5.61035,6.47039,65.64108,65.64108,0,0,1,6.00821,16.16478,40.1401,40.1401,0,0,1,.88631,8.58515c-.03081,1.43854-.13419,2.88166-.2832,4.3127q-.10608.51125-.18117,1.02493l-.2135,1.47237a29.17,29.17,0,0,1-.67955,3.40193c-.278,1.167-.48761,2.29429-.7991,3.49954l-1.0663,3.71691-.53677,1.87407-.656,1.99172-1.30455,3.98584-6.30185,17.85706-1.646,4.7984-1.596,5.01763c-1.1,3.29316-2.02148,6.824-2.9871,10.28223l-.71373,2.59613-.57819,2.19491-1.1552,4.39015c-.76425,2.92627-1.6088,5.86193-2.40824,8.79275q-4.937,17.57292-10.78258,34.90857-11.68187,34.65941-26.69733,68.22778c-4.06973,9.16418-5.66287,17.40349-3.34741,18.51711C1632.87821,1215.588,1638.31766,1209.062,1642.44245,1199.77469Zm-22.33951-173.70758q-80.55771,110.69993-164.24344,219.07465L1289.64981,1461.943c-6.31313,8.23755-9.75652,16.19029-7.69076,17.76256s8.85674-3.82913,15.16785-12.06407l166.17888-216.76121q83.72657-108.41294,164.39851-219.28146c6.13651-8.41631,9.373-16.49849,7.27538-18.01751C1632.87215,1012.05506,1626.23238,1017.66056,1620.10294,1026.06711Zm24.95389,104.68429q6.69578-17.77128,12.43362-35.82277c1.9241-6.00964,3.7328-12.06975,5.46612-18.06215l1.60637-5.358,1.77949-5.8002,1.90392-5.548c.63945-1.81661,1.28044-3.756,1.92644-5.42419,1.28555-3.43018,2.609-6.99546,3.81411-10.06212l3.47737-9.05114c.59391-1.51181,1.01215-2.74745,1.4827-4.0573l.69851-1.94952c.22892-.64389.4909-1.32793.642-1.87339.69674-2.293,1.53377-4.70147,1.93012-6.61221,1.26894-5.14974,1.01691-4.81961,1.16268-6.31431a13.90711,13.90711,0,0,0-.05725-1.79415,11.79844,11.79844,0,0,0-.25258-1.77707,1.605,1.605,0,0,0-1.84255-1.34691,6.30108,6.30108,0,0,0-3.2093,1.84c-1.13947,1.03635-2.12237,2.10161-2.87631,2.76569-.752.68505-.167.30684-.167.30684a3.60523,3.60523,0,0,0,.30735-.28868,8.706,8.706,0,0,0-.70137.57586l-.48311.75564-.46861,1.00731-.18015.65321-.34653,1.31423-.32193,1.32053c-.05889.229-.086.4232-.16827.68161l-.2561.78786-.99082,3.16121c-.13223.48915-.38673,1.15141-.60471,1.76346l-.66649,1.85847c-.44982,1.25157-.8398,2.41136-1.42973,3.91258l-3.44933,8.97755c-1.20043,3.05491-2.55911,6.71153-3.86788,10.20518-.65452,1.69108-1.32239,3.70527-1.97969,5.57317l-1.962,5.72037-1.84695,6.0157-1.64113,5.47589c-1.70532,5.89473-3.48971,11.87539-5.38774,17.80309q-5.65162,17.80108-12.26911,35.34857c-3.41852,9.0419-4.44254,17.10959-2.02888,18.09783C1636.62246,1146.51213,1641.58566,1139.9323,1645.05683,1130.7514Zm25.53668-119.103c.27978-1.28424.80937-2.95233,1.25168-4.856a11.59167,11.59167,0,0,0,.29011-5.04836c-.30072-1.355-1.13264-2.09776-2.011-1.76025a7.24786,7.24786,0,0,0-3.2272,2.30809c-.82267,1.05742-1.54751,2.18649-2.34813,3.26062l-17.68282,24.45073q-26.53713,36.5826-53.432,72.90143-53.769,72.63639-108.8901,144.25774L1265.71228,1532.586c-6.25858,8.26086-9.65466,16.22842-7.58519,17.79572s8.81851-3.85582,15.07389-12.11256l218.79684-285.37785q55.1715-71.61093,108.99264-144.39366,26.91092-36.36084,53.48407-72.9726l15.3498-21.75282a1.36275,1.36275,0,0,0,.2973-.64416A4.06633,4.06633,0,0,0,1670.59351,1011.64844Zm47.62217,124.24459c2.43231-7.65953,4.82741-15.33378,7.02367-23.07349,1.14055-3.85615,2.17167-7.747,3.25447-11.62142l1.54987-5.85877c.51051-1.93721,1.05149-4.03429,1.47343-5.49476a61.55191,61.55191,0,0,0,1.35961-6.2087,35.51871,35.51871,0,0,0,.65934-5.39849c.12207-3.18329-.25912-5.51306-1.51148-5.91429-1.20386-.43853-3.04165,1.11492-4.806,3.846a38.1424,38.1424,0,0,0-2.633,4.9587,50.75066,50.75066,0,0,0-2.15449,6.30408c-.45663,1.5923-.97825,3.61639-1.48336,5.53205l-1.52849,5.77829c-1.06967,3.82635-2.08732,7.66866-3.21423,11.4775-2.16881,7.64424-4.53562,15.2256-6.93813,22.7931-3.26963,10.12223-4.15359,18.95245-1.691,19.8247C1710.00735,1153.69843,1714.89942,1146.16,1718.21568,1135.893Zm23.55129-112.98716c-.07206.79586-.1544,1.655-.18993,2.28991-.09614,1.35414-.12526,2.67675-.18672,3.8767-.08755,1.17978-.13773,2.28953-.14985,3.31458a22.12931,22.12931,0,0,0,.39348,5.0077c.26839,1.21405.687,1.93771,1.31819,2.11126.62315.1605,1.39918-.24351,2.22673-1.2039a21.01824,21.01824,0,0,0,2.55556-4.49429c.43811-.98233.87722-2.07225,1.30944-3.25468.40729-1.208.74083-2.57834,1.08751-3.99469.15743-.64646.366-1.61667.54233-2.497q.271-1.35207.51152-2.76775c.28808-1.86725.40089-3.81494.52482-5.81247q.18108-3.33883.26586-6.67543c-.01667-2.21688-.22091-4.42218-.3221-6.63384-.14817-2.20576-.20053-4.43022-.42733-6.62062l-1.06226-6.49649-.531-3.24824a26.91893,26.91893,0,0,0-.61776-3.21887l-1.69113-6.28324c-.57685-2.0877-1.09813-4.204-1.72044-6.26813l-2.267-5.98611-2.267-5.98616c-.19363-.49552-.36773-1.00518-.577-1.489l-.67921-1.41433-1.35843-2.82866-2.71686-5.65736-1.35826-2.82866c-.22983-.46728-.44535-.95223-.68663-1.405l-.83462-1.21944-6.67581-9.75559-1.66907-2.43892c-.60042-.7461-1.22811-1.45091-1.841-2.1784-.5957-.73916-1.28451-1.401-1.941-2.08984-.66238-.68376-1.312-1.3786-2.0299-2.01471a60.26985,60.26985,0,0,0-9.02881-7.13576,56.04709,56.04709,0,0,0-10.32966-5.35833,51.35178,51.35178,0,0,0-23.048-3.58878,61.54562,61.54562,0,0,0-22.0787,6.18,74.35122,74.35122,0,0,0-18.44556,13.1062,116.33162,116.33162,0,0,0-8.44843,8.92775c-.68494.84237-1.4177,1.58931-2.06374,2.51l-1.96879,2.69994-3.93789,5.39987-15.47176,21.29152-20.30136,28.02954q-20.35221,27.99292-40.90916,55.837c-6.152,8.32573-9.45867,16.32221-7.37236,17.86989,2.08361,1.54562,8.77659-3.951,14.93566-12.28632q20.5795-27.86924,40.9494-55.89191l20.32139-28.05724,13.72405-18.92781,3.47723-4.78423c1.15605-1.60059,2.3062-3.21318,3.54189-4.65592,2.42861-2.95961,4.86024-5.75009,7.31192-8.32982a66.45565,66.45565,0,0,1,16.21007-12.99482,54.61661,54.61661,0,0,1,19.99442-6.456,42.40006,42.40006,0,0,1,21.02216,3.22063,47.79285,47.79285,0,0,1,9.30865,5.16525,52.44787,52.44787,0,0,1,8.00393,6.87221c.63274.61141,1.19611,1.27909,1.77245,1.93621.57045.66166,1.17272,1.299,1.68356,2.00611.52785.69576,1.06917,1.37447,1.58573,2.0842l1.42982,2.2804,5.71912,9.12146.71491,1.14018c.20811.41352.39534.85032.594,1.27432l1.17557,2.56221,2.35133,5.12438,1.17574,2.56221.58779,1.28111c.1805.4368.329.89385.495,1.33978l1.94335,5.38266,1.94319,5.38262c.53054,1.84768.972,3.7359,1.46249,5.60189l1.43655,5.61362c.44653,1.88081.63123,3.83991.95989,5.756l.88379,5.77876c.184,1.94479.2167,3.915.33254,5.87115.07408,1.96041.24229,3.91706.23892,5.88054q-.10456,2.94965-.27361,5.906c-.12156,1.766-.13672,3.4947-.3029,5.15818Q1741.88593,1021.68444,1741.767,1022.90587Zm-257.12013,105.51032q-34.73619,46.1189-70.08341,91.80222l-70.50065,91.93557-140.96744,184.03429c-6.279,8.2878-9.69119,16.27658-7.621,17.84295s8.8362-3.87914,15.11212-12.16282l140.92871-183.98361,70.49206-91.92454q35.32542-45.77934,70.14639-91.88464c6.235-8.279,9.59825-16.25974,7.52305-17.81689C1497.5989,1114.6998,1490.87461,1120.14674,1484.64684,1128.41619ZM1180.95148,2337.23908a75.77984,75.77984,0,0,0,7.51414-7.5446c2.53148-2.88473,5.036-6.07152,7.47843-9.22312,2.448-3.16422,4.86395-6.35135,7.3621-9.7518q.93951-1.29084,1.88644-2.59193l.95787-1.35271,1.03146-1.55037q1.01958-1.56992,2.04741-3.15244.9668-1.554,1.941-3.12028,3.88865-6.33165,7.82006-13.374c2.61415-4.53629,5.23016-9.23035,7.84044-14.14229,5.26838-9.80113,10.55578-20.36062,15.91542-31.5377,10.672-22.36578,21.42087-47.25007,31.76248-73.76791q10.66431-27.36729,21.98778-54.50609,11.28207-27.1468,23.23-54.01427c3.94885-8.96921,8.01134-17.88286,12.05851-26.80408l6.15874-13.33629,1.54263-3.3326.77131-1.66638.63763-1.38958.728-1.72717,1.46181-3.45163.87571-2.30822,1.31718-3.48616c3.51478-9.26588,6.99588-18.58076,10.26214-26.47609,1.6152-3.97123,3.393-7.94045,5.30576-12.21762l6.08785-13.32787c8.35953-18.18828,16.76166-36.6239,24.99525-54.93072l24.605-54.99353,24.3061-54.86219,12.08444-27.26,12.24237-27.11759q49.28208-108.4964,101.92756-215.483l106.873-214.05168c4.81882-9.652,6.64314-18.415,3.88065-19.01061-2.51835-.54283-8.09333,6.4027-12.5515,15.33235l-63.81356,127.81164-31.90779,63.90541c-5.29481,10.65664-10.68762,21.28878-15.90229,31.96554l-15.598,32.02522q-31.04151,64.09465-60.91115,128.72718-14.92952,32.31087-29.54165,64.7641c-4.87674,10.76718-9.66307,21.66173-14.4691,32.52883l-14.46439,32.6855c-6.52831,14.74338-14.8183,25.36744-18.49994,23.73h-.00016c-3.66716-1.63524-1.34008-14.89972,5.18267-29.63055,12.535-28.2307,24.79758-56.33125,37.55231-84.28447,4.44386-9.77159,5.96494-18.58,3.194-19.09076-2.54242-.47127-7.87748,6.68473-12.01961,15.78763-12.59579,27.616-24.72148,55.3988-37.08171,83.23761q-18.481,41.78322-37.27265,83.4841c-6.62075,14.69658-15.01984,25.24158-18.67353,23.5715-3.66093-1.67127-1.20656-14.89155,5.40156-29.56017q21.28288-47.19064,42.17145-94.537l20.94538-47.28442q10.58424-23.58016,21.35352-47.09062,43.03352-94.04005,88.57157-186.91111l92.38656-185.13654,23.10661-46.27957c7.72527-15.3736,15.361-30.95774,22.92191-46.55806a814.26661,814.26661,0,0,0,38.04194-96.80642c3.32873-10.382,3.52134-19.40435.69252-19.46-2.5857-.0556-6.79468,7.75916-9.84172,17.2129a800.23686,800.23686,0,0,1-34.99187,89.84236c-13.73314,29.02332-28.45413,57.88827-42.85622,86.86562L1522.253,1474.91338q-10.89287,21.68408-21.45606,43.54074l-21.10163,43.72358q-20.97805,43.78337-41.39626,87.83334-20.42343,44.04855-40.27826,88.35757l-39.31905,88.72487c-6.53319,14.69354-14.86141,25.24007-18.52284,23.59591-3.67372-1.6514-1.30168-14.84777,5.22427-29.52515L1376.473,1751.1c10.27527-23.436,20.8979-46.80565,31.52659-70.09486q31.95906-69.89682,65.29624-139.14144c11.14156-23.06141,22.259-46.15742,33.71662-69.02048l34.2815-68.66193,68.56386-137.32335c4.83869-9.691,6.67883-18.4853,3.915-19.07822-2.51953-.54056-8.11051,6.43655-12.587,15.40222l-57.88768,115.93978-28.94325,57.97018-14.47162,28.9851-7.23565,14.49258-7.139,14.5591q-56.98386,116.67263-110.13808,235.21418c-6.52258,14.75457-14.79136,25.395-18.469,23.766-3.67776-1.629-1.3628-14.93044,5.17073-29.7096q30.21993-67.61141,61.7658-134.42995,15.76044-33.4455,31.82984-66.7387c10.73964-22.18174,21.46363-44.39219,32.50719-66.31119l65.85777-131.906,32.93-65.95247,8.23257-16.48806,4.11638-8.244,2.044-4.1029,1.9245-3.94051,7.70726-15.75732c2.619-5.24287,5.05421-10.51672,7.45772-15.81338,3.93049-8.66118,5.4381-17.03148,3.376-18.57487-2.26259-1.69206-7.49813,4.90267-11.69129,14.14271-4.08168,9.18009-8.65351,18.25159-13.0913,27.36383-4.28525,8.8692-9.3265,18.84149-14.08336,28.39646l-28.85974,57.79988-57.71746,115.60059-28.817,57.83641q-14.239,29.06979-28.28138,58.32554-28.05828,58.45526-55.14843,117.39047-13.55054,29.48373-26.84751,59.07842l-26.19087,59.11688q-26.03075,58.733-52.48157,116.97031l-13.50231,29.49854c-2.3328,5.20423-4.805,10.741-7.12,16.42626-1.17541,2.825-2.22656,5.53273-3.326,8.28107l-3.05529,7.90459-5.7932,15.27662-.71575,1.89436-.0692.18235.00337-.00943c.00438-.00859.00219-.00556.00219-.00556l.00033.00017a1.61859,1.61859,0,0,1,.07055-.15238l-.86324,1.86406-3.45232,7.45688c-4.63142,9.93095-9.11619,19.921-13.61848,29.90466q-26.80432,59.98653-50.73,121.20656a614.79849,614.79849,0,0,0-25.20892,79.88657c-3.02683,12.57154-5.4019,24.6873-7.22975,36.13091-.88783,5.7272-1.66419,11.30336-2.28532,16.64784q-.80086,7.82731-1.24293,15.11852-.37227,7.11609-.73259,14.00944c-.20524,4.74322-.20861,9.27716-.00336,13.33915.20272,4.07546.61877,7.614,1.10418,10.87973.49418,3.26525,1.04072,6.30792,1.65713,9.18827a52.84359,52.84359,0,0,0,4.95756,14.55109c2.141,3.83385,4.86917,6.54431,8.23005,7.92446,3.36089,1.38032,7.19709,1.36163,11.448-.001A41.20731,41.20731,0,0,0,1180.95148,2337.23908Zm309.17437-719.28963q24.62172-52.18133,49.99876-104.00831l51.59307-103.46741,51.65015-103.44906,12.91232-25.86237c4.31624-8.67624,8.57185-17.07483,12.976-26.14969l6.55441-13.39968,3.274-6.70157,3.13981-6.79207c4.14348-9.07326,8.17954-18.19586,12.0181-27.41535,4.14332-9.92456,5.33422-18.82162,2.92059-19.75314-2.42978-.939-7.505,6.33275-11.59464,16.12833-3.7963,9.118-7.78959,18.14358-11.88879,27.12028l-3.10614,6.71933-3.243,6.63632-6.4911,13.27c-4.34014,8.94707-8.63028,17.415-12.94078,26.07957l-12.91923,25.876-51.6776,103.50369-51.62153,103.525q-25.42031,51.89214-50.05684,104.12936c-4.42028,9.369-6.07858,17.86568-3.72423,18.968C1480.24676,1634.006,1485.7118,1627.30507,1490.12585,1617.94945Zm574.25365,602.23818c-2.34476.24632-3.85607.79758-3.9603,1.60038s1.22458,1.70612,3.472,2.51666a32.7315,32.7315,0,0,0,3.98958,1.12069,45.0342,45.0342,0,0,0,4.95875.69168,396.39108,396.39108,0,0,0,47.73919,1.527c7.02-.29028,12.63249-1.81691,12.52389-3.47016-.09682-1.57833-5.78343-2.67746-12.68907-2.39073a390.49,390.49,0,0,1-47.02731-1.50373c-1.73979-.16181-3.40634-.20676-4.92961-.22562A32.33789,32.33789,0,0,0,2064.3795,2220.18763Zm-87.36131-70.16643c-.38288.69892.32513,1.98141,1.85412,3.38261a32.30279,32.30279,0,0,0,6.626,4.28828c3.36677,1.63574,6.81606,3.08694,10.22223,4.63311,3.49222,1.332,6.9314,2.81014,10.46133,4.0369l5.30492,1.81236c.88614.2955,1.76252.622,2.65658.893l2.69211.78176,5.38237,1.56973c1.79266.52533,3.71177.99054,5.56151,1.48926a311.35835,311.35835,0,0,0,44.88073,8.16843c30.30438,3.26357,61.13071,2.20231,91.57551-2.10954,6.25016-.87874,11.0779-3.06421,10.80783-4.63362-.27478-1.62243-5.47025-2.03747-11.62293-1.17254-30.04238,4.25545-60.38212,5.2906-90.13575,2.086a305.44762,305.44762,0,0,1-44.04812-8.01791c-1.8218-.49131-3.74057-.95669-5.48289-1.46838l-5.23319-1.52714-2.618-.759c-.86931-.26333-1.72094-.58189-2.58267-.86931l-5.15776-1.76185c-3.43261-1.19174-6.77582-2.6325-10.17307-3.92476-3.31257-1.50694-6.66806-2.91571-9.94443-4.508a30.56256,30.56256,0,0,0-7.23951-2.6746C1978.8159,2149.29181,1977.412,2149.29973,1977.01819,2150.0212Zm173.55663,45.65457a485.51378,485.51378,0,0,0,67.61137-12.09589c5.55933-1.3559,11.057-2.91082,16.58841-4.35664,5.51841-1.50037,11.00736-3.19419,16.50725-4.79845l8.16422-2.69547c2.71585-.91427,5.45931-1.75057,8.13559-2.777,5.36536-2.01189,10.80212-3.84159,16.08481-6.06512,42.61931-16.94216,82.62616-39.96779,119.63042-66.8542,8.06639-6.01444,15.85868-9.27851,17.374-7.3269,1.56115,2.00919-3.8399,8.56427-12.037,14.674l-8.99379,6.36516-4.4979,3.18157-4.58109,3.06808-9.16856,6.12792-9.33356,5.89-4.67032,2.93962-4.74879,2.81974-9.50934,5.62044-9.67335,5.3529-4.84408,2.66282-4.91782,2.53451a36.88182,36.88182,0,0,0-7.36344,4.8328c-1.692,1.51468-2.5197,2.72359-1.92669,3.403,1.0892,1.2638,6.625-.25879,12.36394-3.22383,15.332-8.04619,30.35926-16.645,44.839-26.02654a67.02644,67.02644,0,0,1,11.78137-6.17186c3.27586-1.20168,5.66574-1.43521,6.37492-.40107l.002.00287c.70885,1.034-.40409,3.14469-2.7933,5.73073a53.69686,53.69686,0,0,1-10.45931,8.4853c-15.31214,9.9318-31.24591,19.02038-47.54573,27.46713a517.02011,517.02011,0,0,1-50.32623,22.74579c-4.31287,1.65056-8.66951,3.20228-13.00409,4.803-2.15972.82031-4.359,1.541-6.55812,2.26209l-6.59178,2.17672c-4.37331,1.51064-8.84815,2.73555-13.28713,4.06115-2.21545.64049-4.46288,1.33351-6.65274,1.928l-6.54683,1.74518c-17.39491,4.71679-35.42711,8.8-53.60529,11.83188-7.00716,1.13635-12.471,3.404-11.796,4.99175.64133,1.54145,6.57158,1.77986,13.18543.72349,13.06167-2.26158,26.10836-4.85519,38.80349-8.04232,6.4325-1.48454,12.58838-3.25329,18.87339-4.8924,3.09688-.791,6.322-1.75781,9.52585-2.69985l9.60094-2.84853a523.03166,523.03166,0,0,0,73.829-29.85061c47.3154-23.66242,90.703-53.65193,130.16011-87.19294l14.36791-12.45c2.32152-1.976,4.96026-4.30159,7.44409-6.53454,2.50471-2.24963,4.9552-4.52114,7.39189-6.79906,9.68446-9.13556,18.87794-18.48074,27.737-27.98571q6.64635-7.12748,13.07447-14.35983l6.38739-7.25231c2.10937-2.44259,4.15408-4.77017,6.42341-7.49477,8.90556-10.548,16.79247-21.28634,24.26822-31.8162,7.44476-10.53524,14.44637-20.88813,21.36547-30.809,3.46275-4.95672,6.90328-9.83161,10.36805-14.53577,1.72616-2.38231,3.47151-4.673,5.2108-6.98376l3.12162-4.19753c1.09746-1.4571,2.13194-2.90948,3.12971-4.35917a369.30948,369.30948,0,0,0,21.41666-34.90431c6.37863-11.69045,12.19153-23.46761,17.67879-35.36027,2.964-6.46955,3.92477-12.2513,2.16089-12.4983-1.59044-.21888-4.94712,4.51609-7.666,10.43153-6.4645,14.02089-13.41761,27.86263-21.18565,41.55469q-5.81037,10.27184-12.46261,20.42815c-2.205,3.3885-4.56256,6.76773-6.98847,10.14293l-3.69106,4.97305-3.14722,4.17581c-5.66406,7.60017-11.85209,12.975-13.914,11.52275l-.00269-.002c-2.04674-1.42359.84624-9.18355,6.63186-16.94872l5.18958-6.92062c1.90665-2.51818,3.67052-5.06347,5.43776-7.60943q5.20878-7.65684,9.88448-15.43775c6.24561-10.37613,11.95412-20.89454,17.28143-31.5441a626.1496,626.1496,0,0,0,28.195-65.40232c2.2141-6.06251,2.90308-11.81269,1.55375-12.7102-1.46754-.97429-4.56661,3.84344-6.92248,10.32057a615.03032,615.03032,0,0,1-32.66967,74.13757c-4.76663,9.11839-10.78763,15.32932-12.9391,14.05743-2.16695-1.27879.23606-9.35731,4.901-18.28274a607.10988,607.10988,0,0,0,27.38446-60.3008q6.04272-15.42339,11.09239-31.24549c1.65443-5.28387,3.2405-10.59426,4.609-15.98807a157.66593,157.66593,0,0,0,3.42941-16.44487,27.55232,27.55232,0,0,0,.2923-4.74853c-.0256-.74278-.04311-1.43563-.13066-2.10163-.102-.67172-.22023-1.29226-.3519-1.85252a7.24153,7.24153,0,0,0-1.08937-2.60952c-.41083-.582-.824-.84666-1.22272-.77931s-.74758.45477-1.04156,1.05258a16.46665,16.46665,0,0,0-.79067,2.398c-.1347.50024-.25627,1.04155-.36167,1.61747-.12022.5803-.28152,1.21523-.39837,1.87239-.21248,1.31129-.51286,2.77966-.71053,4.32869a197.50772,197.50772,0,0,1-6.63523,27.63761c-2.77478,9.14128-5.8991,18.20032-9.2578,27.17407q-10.10083,26.91483-22.70336,52.82573c-8.426,17.20145-17.58483,34.09377-28.28222,49.86288-2.70339,3.95069-5.46975,7.70237-8.40449,11.57578q-4.393,5.79345-8.60047,11.70375c-5.63509,7.86165-11.0998,15.81827-16.56147,23.75013-5.67853,8.2735-12.006,13.72944-14.05372,12.27555-2.03967-1.45255.90618-9.16722,6.57461-17.42573,6.09543-8.85236,12.2417-17.80018,18.66175-26.68116l4.88247-6.64045,4.84408-6.45894c3.04451-4.01131,5.89573-8.29808,8.72507-12.59276,11.1567-17.39828,20.88089-36.177,29.7117-55.31107,2.75794-6.02109,3.56613-11.44942,1.81506-11.72631-1.57866-.24557-4.78044,4.1327-7.30771,9.63234-6.4187,13.88662-13.2947,27.56167-20.8452,40.59034-4.81007,8.31172-10.68628,13.60148-12.78184,12.18042l-.003-.00186c-2.07334-1.368.25087-8.6562,4.92119-16.72714,3.5631-6.13685,6.98612-12.46176,10.27679-18.89831q4.94915-9.643,9.54168-19.57138c6.12842-13.20942,11.78339-26.71526,16.89888-40.29561,2.08614-5.56724,2.67645-10.82122,1.32611-11.69305-1.47427-.9556-4.46592,3.3368-6.68069,9.27926a565.696,565.696,0,0,1-31.50588,69.47147c-3.00579,5.48726-6.09072,10.872-9.26656,16.08093-3.19234,5.17072-6.46551,10.17492-9.802,14.84255l-5.6691,7.58805c-2.18615,2.88052-4.26017,5.75682-6.35573,8.62977-4.15544,5.74706-8.1287,11.44883-12.04235,17.09251-7.793,11.26985-15.231,22.24034-22.72794,32.54575-3.74225,5.17965-7.51414,10.11583-11.32778,14.90367l-2.87075,3.54627-2.90375,3.45062c-2.01711,2.35958-4.2275,4.92238-6.34934,7.32977-8.56174,9.78413-17.30971,19.29062-26.22336,28.428q-6.69281,6.835-13.52267,13.31878-3.41308,3.23376-6.85984,6.34765c-2.32691,2.106-4.49925,4.01939-7.11509,6.253l-14.98045,12.9657c-4.98854,4.07411-9.88818,8.2804-14.94239,12.25483-5.06937,3.95-10.05825,8.02616-15.23941,11.79871l-7.70675,5.7602-7.82933,5.55394c-10.42024,7.44089-21.14928,14.33322-31.96318,21.04068l-8.20244,4.84644-4.09937,2.42675-4.1588,2.29913-8.31559,4.60145-8.42233,4.35513a446.82379,446.82379,0,0,1-69.61366,28.65331l-8.98217,2.63756c-1.509.43575-2.96571.89406-4.51676,1.31348l-4.68228,1.24646-9.36353,2.49679-9.29266,2.266c-12.36747,2.88928-24.711,5.44787-37.11471,7.26865a35.70033,35.70033,0,0,0-7.731,2.03293c-1.89268.82166-2.93945,1.74872-2.62392,2.56836.28775.74706,1.73289,1.24629,3.83923,1.46383a29.27651,29.27651,0,0,0,7.77477-.329,502.28558,502.28558,0,0,0,55.88759-12.06643c2.31461-.6351,4.72773-1.21733,6.9622-1.89486l6.7701-1.99286c4.53259-1.25808,8.98907-2.79953,13.46509-4.26942,4.49521-1.40676,8.89934-3.11843,13.33528-4.72488,4.45379-1.55357,8.8042-3.422,13.19587-5.166,35.01022-14.349,68.36416-33.2642,99.80842-55.27488a54.5663,54.5663,0,0,1,10.80683-6.06057c3.01555-1.22879,5.26366-1.49145,6.01191-.48559l.002.00286c.74858,1.006-.1512,3.095-2.22353,5.67029a49.31751,49.31751,0,0,1-9.38576,8.31407l-4.39386,3.10395-4.46759,2.98491-8.93756,5.9646-9.082,5.71709c-1.518.94474-3.01589,1.926-4.5501,2.84146l-4.61374,2.726c-12.23463,7.39964-24.85163,14.07224-37.6163,20.38167l-9.63344,4.60162c-3.23427,1.47781-6.5017,2.875-9.75,4.31859-1.62951.708-3.24538,1.452-4.88567,2.1316l-4.93938,1.99033c-3.30347,1.29664-6.56063,2.72562-9.90014,3.918-13.27517,5.08688-26.73858,9.30764-40.45994,13.1334-6.34057,1.68828-11.09912,4.4213-10.2719,5.9678.75633,1.41282,6.24123,1.173,12.19354-.41217a460.60555,460.60555,0,0,0,69.45421-25.24882,541.70388,541.70388,0,0,0,65.01152-35.74164,60.64029,60.64029,0,0,1,11.25066-5.82316c3.14217-1.11193,5.45022-1.28906,6.15941-.25492s-.32193,3.08829-2.57779,5.58458a49.06852,49.06852,0,0,1-9.92825,8.13661,507.3101,507.3101,0,0,1-105.544,52.30192c-4.62991,1.64955-9.32414,3.1117-13.98267,4.67756-4.68413,1.48623-9.42112,2.79987-14.12882,4.209-4.7375,1.33031-9.5181,2.55455-14.275,3.83738-4.75517,1.3059-9.56171,2.35334-14.34,3.54323a465.02563,465.02563,0,0,1-58.13317,9.85923,38.465,38.465,0,0,0-8.1255,1.66032c-2.0597.67972-3.30936,1.50407-3.24875,2.31058.06079.8065,1.42561,1.44346,3.59712,1.81943A33.53467,33.53467,0,0,0,2150.57482,2195.67577Zm-123.32637-38.36033,5.75414,1.51367c1.92349.51236,3.73972.88076,5.614,1.331l5.58307,1.29007,5.63392,1.09358c7.50487,1.48959,15.10824,2.56717,22.74141,3.4641a324.03261,324.03261,0,0,0,46.31948,1.87819c6.03481-.26283,10.84269-1.73912,10.74183-3.39321-.10456-1.57732-4.98652-2.727-10.907-2.4675a318.21178,318.21178,0,0,1-45.49731-1.84385c-7.487-.88042-14.94155-1.93561-22.294-3.39608l-5.52026-1.07051-5.46773-1.26448c-1.83981-.44214-3.6057-.79808-5.50781-1.305l-5.68628-1.496c-5.33421-1.57025-10.02052-1.51367-10.5179-.05557C2017.71149,2153.20765,2021.7292,2155.69536,2027.24845,2157.31544Zm-11.47207,40.30133c-.19682.79741.92151,1.84907,2.906,2.91824a32.40414,32.40414,0,0,0,8.18442,2.92564l7.4611,1.72851,7.5079,1.47511c4.99578,1.05351,10.04764,1.71606,15.07524,2.54748,6.77633.9146,12.41512.22848,12.57693-1.366.16551-1.627-5.09967-3.54171-11.741-4.43729-4.94072-.819-9.90755-1.46736-14.81477-2.50387l-7.37657-1.44851-7.32791-1.69837a46.05018,46.05018,0,0,0-8.50046-1.23468C2017.49176,2196.485,2015.99965,2196.85051,2015.77638,2197.61677Zm75.05883,11.85882c-.03957.80735,1.29411,1.61857,3.49575,2.26394a38.98053,38.98053,0,0,0,8.66446,1.05334,415.97118,415.97118,0,0,0,45.20821-1.85412c3.736-.40275,7.49006-.70818,11.21075-1.19612l11.16277-1.46215,11.09845-1.76858c3.703-.57533,7.35906-1.34412,11.04053-2.00886,14.668-2.84482,29.24514-6.24679,43.423-10.17677l5.35526-1.44026,5.40476-1.58708c3.59273-1.08921,7.22857-2.05213,10.78426-3.24993l10.68914-3.52976c3.55906-1.18686,7.05144-2.549,10.57952-3.81735,6.35371-2.24845,10.86576-5.63307,10.27141-7.102-.62079-1.53252-6.04862-.6095-12.3104,1.6046-3.48464,1.25235-6.93426,2.59933-10.44887,3.77087l-10.5546,3.48514c-3.51091,1.18366-7.09977,2.13227-10.64637,3.208l-5.33539,1.56738-5.313,1.42864c-14.08976,3.90608-28.49993,7.26646-43.00354,10.08047-3.6387.65648-7.25417,1.41786-10.9124,1.98562l-10.96426,1.74737-11.022,1.44362c-3.67389.48222-7.37691.78209-11.06394,1.18029a410.12174,410.12174,0,0,1-44.56233,1.82836,38.56274,38.56274,0,0,0-8.5966.66642C2092.27362,2208.0126,2090.87461,2208.66589,2090.83521,2209.47559Zm-320.60805-517.13618c-1.6157,15.01825-2.97093,30.075-3.93335,45.17362-.4041,6.70215.64537,12.20465,2.25333,12.28126,1.62648.0783,3.19723-5.258,3.59829-11.91076.95636-15.00469,2.3035-29.97007,3.90927-44.89883.77789-6.60829.10793-12.12855-1.49851-12.32984S1771.01009,1685.68491,1770.22716,1692.33941Zm-5.713,105.98012a669.8955,669.8955,0,0,0,7.7507,104.0722c2.74918,17.32218,6.13633,34.60849,10.4987,51.73889,2.11611,8.55888,4.591,17.14117,7.184,25.65241,2.69043,8.47857,5.47767,16.93626,8.66261,25.31364,12.52793,33.4984,29.36906,66.28072,52.12866,95.69524,2.85156,3.75741,5.69049,7.11762,8.53683,10.58761,2.7965,3.48245,5.81694,6.83728,8.77289,10.22729,5.95281,6.75578,12.21341,13.32316,18.70518,19.7198,1.58506,1.62614,3.27182,3.17887,4.94578,4.74019l5.02306,4.6816c3.39725,3.08206,6.93123,6.05468,10.39953,9.076,3.62473,2.88557,7.17773,5.83866,10.88159,8.64425l5.61539,4.14971,2.81149,2.06964,2.9014,1.97248a41.20713,41.20713,0,0,0,8.23375,4.49117c2.32489.81745,3.96821.97034,4.39554.283.42767-.68747-.43407-2.08058-2.15382-3.77054a48.56659,48.56659,0,0,0-7.14675-5.8304l-2.84314-1.93174-2.75626-2.0299-5.50612-4.06873c-3.6328-2.75154-7.12014-5.6521-10.67819-8.48194-3.40618-2.96958-6.87684-5.88731-10.21584-8.91634l-4.93853-4.6033c-1.646-1.53489-3.30449-3.06051-4.86446-4.66207-6.38721-6.29411-12.553-12.761-18.42164-19.42178-2.91437-3.343-5.89237-6.64836-8.65267-10.087-2.80745-3.42318-5.61792-6.74888-8.407-10.426-22.32587-28.85165-38.91208-61.10275-51.27535-94.16305-3.14318-8.26575-5.89573-16.62073-8.55417-24.99677-2.561-8.40819-5.00555-16.8812-7.09892-25.34984-4.31489-16.94216-7.66719-34.05184-10.39028-51.20581a664.06165,664.06165,0,0,1-7.68065-103.19423c.06667-6.68195-1.18888-12.11533-2.80778-12.13562S1764.58078,1791.5837,1764.51411,1798.31953Zm30.18382-28.16108-.346,33.12487c.06382,11.0439.4408,22.09091,1.04492,33.1242a624.96582,624.96582,0,0,0,7.14456,65.91417,510.40214,510.40214,0,0,0,14.77773,64.68505,403.21434,403.21434,0,0,0,24.01044,61.933,310.22294,310.22294,0,0,0,35.26042,56.408c6.99117,8.59929,14.0842,17.12383,21.77832,25.12557l2.84365,3.03626,2.94164,2.9445c1.97164,1.95245,3.8995,3.949,5.90769,5.86476,4.06232,3.78535,8.0775,7.62189,12.33447,11.19728,4.14095,3.70521,8.56023,7.08832,12.89582,10.56488,4.47417,3.304,8.90793,6.66368,13.57134,9.70685a236.19806,236.19806,0,0,0,59.863,29.23554c5.334,1.59988,10.69823,3.19487,16.0449,4.54657,2.66079.74067,5.39735,1.28721,8.09249,1.93965,2.70356.63426,5.40611,1.2734,8.13913,1.76606a34.95488,34.95488,0,0,0,8.36476.74c2.20147-.1879,3.6195-.70515,3.75016-1.50407.13066-.79876-1.04408-1.72717-3.03441-2.57947a36.73574,36.73574,0,0,0-7.91772-2.40318c-2.68336-.48256-5.33523-1.11076-7.98811-1.7334-2.65153-.64251-5.31586-1.1712-7.95678-1.90682-5.32192-1.346-10.50712-2.89331-15.711-4.45059a230.34146,230.34146,0,0,1-58.37562-28.51643c-4.557-2.97161-8.89462-6.26178-13.27315-9.49251-4.245-3.407-8.57269-6.71554-12.63384-10.35155-4.17312-3.503-8.11438-7.272-12.10313-10.98665-1.97215-1.88106-3.867-3.84512-5.80464-5.76322l-2.89147-2.89315-2.797-2.98744c-7.56566-7.86535-14.56171-16.27658-21.4495-24.74639a304.369,304.369,0,0,1-34.58642-55.34088,397.38219,397.38219,0,0,1-23.66006-61.04012,504.53391,504.53391,0,0,1-14.60716-63.94708,619.06475,619.06475,0,0,1-7.07654-65.29473c-.5989-10.93959-.973-21.89458-1.036-32.85488l.34381-32.89184c.23034-6.44741-.87755-11.73254-2.49747-11.80469C1796.44631,1758.45454,1794.92978,1763.662,1794.69793,1770.15845Zm35.76672-169.74055q-4.88322,22.92137-8.65014,46.04309c-2.53856,15.40365-4.74356,30.85933-6.49834,46.36073a842.84391,842.84391,0,0,0-5.8395,93.30258c-.06668,6.38621,1.19056,11.5555,2.80963,11.54548s2.9871-5.15161,3.05327-11.48385a837.04942,837.04942,0,0,1,5.80094-92.69157c1.74384-15.40533,3.93571-30.76841,6.45962-46.0824q3.7505-22.97667,8.60131-45.78338c1.279-6.23593,1.15773-11.55524-.42245-11.90958C1834.19949,1589.36474,1831.75219,1594.14131,1830.46465,1600.4179Zm-16.75745,242.25022c-.80769.054-1.45558,1.38537-1.84974,3.501a34.1892,34.1892,0,0,0-.20475,8.175,558.18225,558.18225,0,0,0,12.99786,82.33573,417.81971,417.81971,0,0,0,26.5948,78.31127,319.31155,319.31155,0,0,0,19.4573,36.13277c3.65015,5.75952,7.42288,11.43805,11.47746,16.89417,1.976,2.76939,4.09617,5.42042,6.17052,8.109l6.55424,7.98911c17.72829,21.07571,37.56578,40.24729,59.88188,55.63452a30.16093,30.16093,0,0,0,7.02232,3.68467c2.00027.60883,3.44019.63628,3.86769-.05136.42733-.68729-.231-1.955-1.626-3.43614a33.69329,33.69329,0,0,0-5.9353-5.02391c-21.78422-15.01883-41.25516-33.81443-58.71927-54.5768l-6.45591-7.86872c-2.02721-2.62931-4.10089-5.21922-6.03364-7.92968-3.96669-5.33623-7.66028-10.89775-11.23735-16.54092a313.472,313.472,0,0,1-19.09935-35.47123,411.98047,411.98047,0,0,1-26.21578-77.21551,552.32527,552.32527,0,0,1-12.85946-81.47551,34.3186,34.3186,0,0,0-1.50222-7.97631C1815.32947,1843.844,1814.51488,1842.6139,1813.7072,1842.66812Zm23.58631-198.2292a942.78106,942.78106,0,0,0-11.33754,96.85188c-.377,6.27592.68932,11.42846,2.29727,11.50566,1.62648.0777,3.18023-4.90874,3.55418-11.13515a936.90173,936.90173,0,0,1,11.26733-96.24524c1.01781-6.18113.694-11.41-.91965-11.70392C1840.58351,1633.42382,1838.31873,1638.21452,1837.29351,1644.43892Zm-12.9285,147.18132-.14227,13.5726c.11365,4.50119.13049,9.01223.32142,13.50525.24465,9.0012.79708,17.9662,1.39783,26.92109,1.34783,17.88825,3.37251,35.67715,6.32206,53.24481,5.858,35.13819,15.12137,69.50472,28.83212,101.49a307.69428,307.69428,0,0,0,24.04092,45.60658,250.05065,250.05065,0,0,0,14.75988,20.66875c2.70911,3.34927,5.5243,6.761,8.31171,10.101l4.30041,4.90671c1.43083,1.63844,2.85172,3.28883,4.34906,4.84425a288.26983,288.26983,0,0,0,37.69661,34.671,216.51276,216.51276,0,0,0,42.79324,25.532,34.72307,34.72307,0,0,0,3.76027,1.43571,18.53323,18.53323,0,0,0,3.27889.63039c1.93.18756,3.25548-.07611,3.54609-.83176.29028-.75549-.50023-1.85682-1.99538-3.0132a24.42066,24.42066,0,0,0-2.72612-1.76151,31.38245,31.38245,0,0,0-3.473-1.81338,210.64223,210.64223,0,0,1-41.64074-24.84977,282.42342,282.42342,0,0,1-36.92075-33.96463c-1.4709-1.52664-2.86839-3.15093-4.27565-4.76276l-4.23053-4.82606c-2.74161-3.28613-5.52144-6.65527-8.18089-9.94207A244.18268,244.18268,0,0,1,1890.066,2042.785a301.81524,301.81524,0,0,1-23.58177-44.74334c-13.4863-31.45773-22.64325-65.38262-28.437-100.14163-2.91756-17.37589-4.9222-34.98732-6.2579-52.70938-.59453-8.87307-1.14309-17.75708-1.38521-26.68226-.18958-4.454-.20558-8.92872-.31889-13.39211l.14278-13.47334c.06667-6.21573-1.19494-11.28181-2.81368-11.31506S1824.43186,1785.35055,1824.365,1791.62024Zm-33.10407-143.57293-2.1907,14.5804c-.70278,4.86479-1.317,9.744-1.97888,14.61541-.84338,6.54414-.11517,12.01347,1.478,12.19388,1.62429.18488,3.50012-4.9504,4.33761-11.44883.65817-4.8429,1.26869-9.69329,1.96743-14.5298l2.17807-14.49654c1.06294-6.46231.63207-11.92339-.96359-12.19767S1792.331,1641.54156,1791.26094,1648.04731Zm-8.83721,73.75175c-1.14038,14.66416-2.09438,29.36536-2.52676,44.07153-.1805,3.67162-.1645,7.36294-.21535,11.0476l-.11652,11.05737-.11348,11.05737c-.04748,3.68491-.09244,7.36992.02492,11.06948a670.71378,670.71378,0,0,0,7.34728,88.61341c1.05064,6.60156,3.2277,11.71958,4.84509,11.432,1.57041-.28118,1.989-5.7969.95029-12.32084a664.87381,664.87381,0,0,1-7.28043-87.83485c-.11685-3.66934-.07173-7.32918-.02408-10.98892l.11332-10.981.1155-10.98093c.05034-3.65941.03351-7.32395.21333-10.97368.42935-14.61491,1.37779-29.21989,2.51077-43.79355.562-6.532-.28792-11.95319-1.89941-12.10835C1784.75654,1710.01062,1782.98964,1715.21906,1782.42373,1721.79906Zm17.35552,238.279a434.40424,434.40424,0,0,0,25.83038,70.67861,328.53377,328.53377,0,0,0,40.0518,64.86336q11.8147,14.64817,24.92116,28.39352a350.17259,350.17259,0,0,0,28.03287,25.87651,267.30555,267.30555,0,0,0,65.89514,40.13835,40.89321,40.89321,0,0,0,8.63011,2.47676c2.30047.36873,3.90793.04866,4.16991-.688.28152-.78849-.82468-1.846-2.714-3.19386a40.30469,40.30469,0,0,0-7.826-4.00508,261.43424,261.43424,0,0,1-64.43738-39.262,344.36163,344.36163,0,0,1-27.537-25.41972q-12.91839-13.48917-24.55765-27.98083a322.67557,322.67557,0,0,1-39.32763-63.70378,428.56262,428.56262,0,0,1-25.4763-69.72091c-1.76218-6.39967-4.28828-11.3042-5.88681-10.91744C1798.00073,1947.99411,1797.992,1953.58576,1799.77925,1960.078ZM2016.1559,1093.6395c-8.9315,11.88454-17.76584,24.0753-26.33365,36.31637-3.80825,5.44063-5.76861,10.62162-4.43,11.53765,1.33368.91258,5.445-2.76325,9.23372-8.17584,8.53313-12.19118,17.31982-24.31679,26.22286-36.16353,3.93992-5.27452,6.14964-10.30339,4.85368-11.29144C2024.42367,1084.88707,2020.11265,1088.34241,2016.1559,1093.6395Zm-59.68186,86.28061c-18.31356,28.76225-35.35236,58.121-51.39894,88.10341-16.00685,29.95012-30.97635,60.61153-44.57345,91.8896q-20.46561,46.87872-36.81652,95.46845-8.17256,24.25828-15.28369,48.86518c-4.68968,16.37836-9.1,32.7212-13.22415,49.31482-1.55644,6.48268-1.53826,12.03721.03822,12.40536,1.57664.36823,4.10762-4.558,5.65445-11.00222,4.1024-16.50532,8.49693-32.79015,13.16472-49.09165q7.03074-24.48684,15.20708-48.6202,16.25949-48.27651,36.63535-94.99835c13.5311-31.12629,28.42837-61.64088,44.36922-91.46783,15.97637-29.85188,32.949-59.09567,51.17466-87.71927,3.5466-5.569,5.36149-10.77492,4.0066-11.6566C1964.06848,1170.52643,1960.03848,1174.32315,1956.474,1179.92011Zm40.494-7.42178a1314.57176,1314.57176,0,0,0-67.6799,113.6526,1225.9436,1225.9436,0,0,0-55.70153,119.99461,1153.99054,1153.99054,0,0,0-41.81635,125.51724A1092.5506,1092.5506,0,0,0,1804.407,1661.112c-.99593,6.42223-.31806,11.82784,1.26683,12.03763,1.62514.2156,3.54458-4.8078,4.53411-11.18567a1086.69747,1086.69747,0,0,1,27.21962-128.761,1148.07783,1148.07783,0,0,1,41.60588-124.88744,1220.05757,1220.05757,0,0,1,55.43534-119.41911,1308.67847,1308.67847,0,0,1,67.37952-113.14875c3.58162-5.37547,5.43978-10.4455,4.10374-11.35522C2004.6116,1163.47962,2000.56813,1167.09474,1996.968,1172.49833Zm116.64046-128.90439q-30.55332,35.71632-58.86172,73.31886-28.34949,37.52849-53.91257,76.91581c-3.502,5.38186-5.17477,10.48608-3.81465,11.3489,1.37409.872,5.249-2.80315,8.733-8.15706q25.45768-39.26243,53.67719-76.57957,28.19265-37.4334,58.632-73.03309c4.17565-4.84134,6.56064-9.63988,5.35375-10.69351C2122.18333,1035.638,2117.80446,1038.729,2113.60845,1043.59394Zm-148.66157,208.91825a1244.97009,1244.97009,0,0,0-74.33566,151.4158q-7.9844,19.51587-15.17,39.34169c-4.84475,13.194-9.37465,26.50093-13.70081,39.87148-4.35429,13.36559-8.36745,26.82588-12.20045,40.35925-3.84007,13.53985-7.4217,27.16583-10.82939,40.791-1.495,6.23375-1.42948,11.58572.14716,11.95387s4.06013-4.35546,5.54569-10.55073c3.38917-13.55021,6.956-27.12146,10.77887-40.6002,3.81482-13.469,7.80559-26.85433,12.13765-40.15181,4.30377-13.30093,8.80993-26.53889,13.62993-39.66488q7.18-19.70592,15.09225-39.14024a1239.09888,1239.09888,0,0,1,73.98663-150.70089c3.18645-5.5366,4.67991-10.66767,3.28831-11.48756C1971.91869,1243.12525,1968.14984,1246.94689,1964.94688,1252.51219Zm133.16539-166.918q-15.48236,19.173-30.33586,38.87092c-9.92337,13.14914-19.59638,26.32573-28.97574,39.76826-3.6387,5.19859-5.46487,10.18343-4.12631,11.09946,1.33368.91258,5.31081-2.56709,8.93-7.73765,9.33727-13.38234,18.96077-26.49149,28.85081-39.59661q14.807-19.61069,30.219-38.72107c3.99649-4.91159,6.22962-9.72162,4.97827-10.75122C2106.40328,1077.49854,2102.12762,1080.6594,2098.11227,1085.59424ZM2010.4346,1206.506c-19.83447,30.76875-38.25291,62.512-55.41008,94.91248q-25.74132,48.66015-46.89817,99.20818-21.08438,50.60864-37.17987,103.05952c-5.34684,17.42615-10.24918,35.12758-14.85047,52.84779-4.5602,17.69385-8.71682,35.47737-12.34878,53.34886-1.26667,6.18862-.91544,11.46668.6617,11.7684,1.60341.306,3.82425-4.44537,5.0825-10.59308,3.61142-17.77139,7.74581-35.4596,12.28261-53.06212,4.57957-17.63652,9.462-35.26606,14.77857-52.5927q15.95769-52.10682,36.98591-102.52132c13.98233-33.59455,29.58138-66.42039,46.66968-98.72377,17.08124-32.25665,35.41786-63.85926,55.15769-94.4806,3.4178-5.31165,5.13048-10.31308,3.78064-11.201C2017.79113,1197.585,2013.87041,1201.16637,2010.4346,1206.506Zm45.81486-140.36088q-9.1242,11.46864-18.03271,23.10035c-3.9613,5.21837-6.11967,10.24021-4.8259,11.21256,1.29479.97311,5.53795-2.45323,9.48191-7.649q8.89386-11.57433,17.96519-23.0138c4.07865-5.09331,6.36162-10.05193,5.10842-11.06776C2064.68391,1057.70436,2060.34647,1061.02867,2056.24946,1066.14509Zm-44.57413,58.83369q-25.61781,35.645-48.84758,72.89389-23.26422,37.33767-43.92825,75.98706c-3.09486,5.79008-4.40092,11.11293-2.96487,11.863,1.43419.74909,5.05437-3.33411,8.1334-9.09473q20.65251-38.51991,43.73327-75.65032,23.13339-37.05165,48.63511-72.577c3.81178-5.3061,5.888-10.35412,4.58529-11.31186C2019.71529,1116.12873,2015.50733,1119.64473,2011.67533,1124.97878ZM1891.118,1328.76638a1182.13292,1182.13292,0,0,0-54.7972,135.94977c-7.75979,23.184-14.63478,46.70311-20.91643,70.24749-6.3037,23.58883-11.93711,47.42147-16.68741,71.432-1.26178,6.46652-.99323,11.94873.59857,12.24431s3.898-4.6736,5.1517-11.09861c4.7247-23.88223,10.3278-47.58741,16.60254-71.06806,6.25724-23.4517,13.094-46.84,20.81524-69.90881a1176.26131,1176.26131,0,0,1,54.52629-135.27662c2.83236-5.89245,3.93386-11.25579,2.5-11.95866C1897.43789,1318.606,1893.96638,1322.84033,1891.118,1328.76638Zm641.05362-644.06531c-.2667-.76056-1.81674-1.01053-4.09718-.763a39.27685,39.27685,0,0,0-8.46779,2.19541q-21.54935,8.03561-42.39286,17.33531c-6.18264,2.71949-10.57717,6.21907-9.89155,7.69335.67854,1.46254,6.13954.3621,12.26965-2.33407q20.7078-9.185,42.06149-17.20023a39.04432,39.04432,0,0,0,7.81855-3.78645C2531.38063,686.59987,2532.44171,685.468,2532.17164,684.70107Zm-109.73449,45.38015a933.16194,933.16194,0,0,0-88.12185,53.55493c-14.14649,9.619-27.9389,19.49679-41.68181,29.72946-13.72439,10.235-27.11776,20.792-40.32844,31.57075q-39.54114,32.42358-76.329,67.62029l-18.254,17.83975c-3.02818,2.98677-6.11293,5.91994-9.09364,8.9517l-8.93115,9.1042q-17.767,18.28476-34.83949,37.19162c-4.42568,4.93668-7.021,9.81738-5.81021,10.88954,1.21363,1.07443,5.75717-2.04674,10.16129-6.95968q16.99645-18.8267,34.69351-37.03562l8.8921-9.06442c2.96757-3.0185,6.03868-5.938,9.05339-8.91142l18.17179-17.76q36.65917-35.01287,75.99918-67.32888c13.14687-10.72659,26.47558-21.23258,40.12387-31.41079,13.66478-10.17446,27.40315-20.01378,41.47337-29.58054a927.33,927.33,0,0,1,87.56521-53.21953c5.92-3.15991,10.18149-6.7516,9.44233-8.21612C2433.89928,725.62244,2428.411,726.89285,2422.43715,730.08122Zm38.985,13.71971c-39.77735,19.22641-77.71439,42.13662-114.059,67.12644q-27.2559,18.76146-53.44231,39.04034-26.11535,20.33138-51.07785,42.06958c-16.61248,14.50766-32.9719,29.30622-48.80431,44.65865l-23.64154,23.14622c-7.74346,7.85227-15.442,15.7489-22.98993,23.78823q-45.40858,48.12215-86.17765,100.33244c-4.02932,5.08877-6.16193,10.08758-4.8919,11.06507,1.2958.99773,5.49467-2.38167,9.506-7.44746q40.64937-51.85994,85.82828-99.92649c7.51548-8.00485,15.18064-15.86689,22.88891-23.68371l23.53327-23.03994c15.76456-15.28735,32.05949-30.02707,48.59587-44.46838q24.8561-21.60831,50.83017-41.86585,25.97418-20.22663,53.16366-38.83641c36.17182-24.86855,73.81017-47.597,113.31207-66.69064,5.81155-2.79855,9.95654-6.27546,9.2807-7.71658C2472.57717,739.8619,2467.28016,740.97985,2461.42214,743.80093Zm167.18155-41.34254a454.417,454.417,0,0,0-44.9858,9.9831c-14.88178,4.093-29.61472,8.86055-44.17861,14.17159a772.07664,772.07664,0,0,0-85.37738,37.55738c-5.68257,2.90174-9.639,6.46942-8.86987,7.91229.75263,1.41534,5.89944.18787,11.53016-2.68739a766.26475,766.26475,0,0,1,84.7251-37.27368c14.42852-5.2617,29.01026-9.97967,43.7203-14.02556l11.056-2.90045c3.70184-.86333,7.39324-1.79833,11.10216-2.6078,3.71328-.77447,7.41445-1.65317,11.13986-2.32221l5.57987-1.0694c1.85244-.35142,3.64931-.65158,5.491-.94937,5.99777-.96884,10.81289-2.86048,10.6196-4.47238C2639.96513,702.17139,2634.74828,701.4665,2628.60369,702.45839Zm-234.048,95.42486c-23.81193,14.80462-47.01772,30.71625-69.67208,47.37689-22.58736,16.66026-44.54129,34.27414-65.90256,52.58264q-16.012,13.74849-31.59007,28.0175-7.793,7.12715-15.477,14.37864c-2.58064,2.39893-5.10152,4.85258-7.60825,7.31924l-7.54562,7.37645-15.0877,14.7568c-4.93921,5.01119-9.87505,10.02584-14.743,15.11q-14.62518,15.22919-28.79761,30.8944c-4.28694,4.78317-6.77127,9.53869-5.56034,10.6108,1.21346,1.07447,5.646-1.92151,9.91159-6.68094q14.10643-15.60037,28.67318-30.76088c4.84678-5.062,9.76023-10.05378,14.67688-15.04224l15.01816-14.68794,7.51043-7.34244c2.49461-2.45508,5.00386-4.89766,7.57458-7.28729q7.645-7.2302,15.41283-14.319,15.51519-14.1993,31.44981-27.89328c21.26041-18.22212,43.10844-35.75009,65.56194-52.3116,22.54256-16.57851,45.63116-32.409,69.29055-47.11832,5.38118-3.37141,9.12545-7.11858,8.28561-8.51814C2405.10925,792.96816,2399.97759,794.48667,2394.55566,797.88325Zm197.24952-72.15305c-30.64651,8.05947-60.81821,19.30907-90.3447,32.38226-5.72737,2.51757-9.7811,5.8588-9.09684,7.33391.67955,1.4617,5.8001.51964,11.47493-1.97463,29.29717-12.97229,59.1924-24.11328,89.46512-32.07309,5.84792-1.57071,10.30373-3.94945,9.93432-5.52313C2602.86827,724.29659,2597.73829,724.13712,2591.80518,725.7302ZM2456.11,779.92664c-31.98474,16.57069-62.92926,35.74395-92.99826,56.45071-15.03836,10.36725-29.88142,21.1002-44.328,32.1566q-21.72991,16.64862-42.70333,34.38-20.96265,17.72812-41.21863,36.37194c-6.72093,6.23227-13.50954,12.44859-20.02371,18.87537l-19.64184,19.19864c-25.9538,25.85155-50.72781,52.962-74.48889,80.95094-4.114,4.84846-6.41786,9.6387-5.16365,10.6832,1.23468,1.027,5.5403-2.06492,9.63445-6.88989,23.66326-27.87366,48.33136-54.86821,74.1651-80.59959l19.54975-19.10839c6.48234-6.39635,13.24688-12.59019,19.93818-18.795q20.16456-18.55809,41.03223-36.20764,20.88006-17.61858,42.48445-34.20406c14.35764-10.98854,29.131-21.67128,44.09056-31.9841,29.9087-20.59656,60.65455-39.6427,92.36955-56.07317,5.47615-2.84967,9.472-6.27491,8.74056-7.72788C2466.83465,775.95974,2461.64035,777.049,2456.11,779.92664Zm125.6723-94.88861c-.40847-1.5778-6.00652-1.48559-12.44.37968-4.81512,1.3272-9.54976,2.86478-14.32413,4.29819-4.71948,1.56842-9.4878,3.0233-14.16586,4.68981a36.8992,36.8992,0,0,0-7.76838,3.61355c-1.8659,1.25023-2.87681,2.40247-2.59967,3.163s1.78711.98671,3.99717.74023a38.228,38.228,0,0,0,8.27282-1.97068c4.63563-1.65192,9.35545-3.09088,14.02981-4.64495,4.72521-1.41795,9.41371-2.94152,14.1763-4.25371a39.48708,39.48708,0,0,0,7.94113-3.12076C2580.86837,686.87058,2581.98771,685.82107,2581.78229,685.038Zm-83.11612,25.43775c-13.64526,5.6946-27.07129,11.81761-40.33434,18.22184-3.323,1.591-6.63253,3.20114-9.907,4.8614-3.285,1.6595-6.57293,3.25557-9.85451,4.968q-9.8599,5.03511-19.57568,10.39164c-25.894,14.21278-50.8529,29.8311-75.12987,46.30064-5.45561,3.68946-9.0662,7.83534-8.14857,9.15193.93481,1.33941,6.02135-.6356,11.44294-4.30192,24.14868-16.38248,48.95737-31.90522,74.65911-46.01217,12.85727-7.07954,25.91692-13.715,39.06447-20.08039,13.17583-6.362,26.50723-12.44183,40.04574-18.09189,6.08162-2.50825,10.54854-5.72117,9.95015-7.2324C2510.28556,707.15276,2504.805,707.94367,2498.66617,710.47578ZM2293.8,831.20776q-29.20035,22.2385-56.90422,46.21551c-18.46508,15.97481-36.554,32.31718-54.04929,49.31427l-13.09467,12.79872c-4.35024,4.28045-8.77272,8.49069-13.01251,12.87848q-12.8704,13.01847-25.32593,26.41539c-8.33681,8.902-16.5017,17.95778-24.61355,27.05794-8.05343,9.15034-16.0577,18.34365-23.88753,27.68025-4.23794,5.00462-6.5859,9.959-5.34853,10.9813,1.25909,1.04,5.61557-2.22378,9.83364-7.20491,7.79885-9.29981,15.77079-18.45575,23.79122-27.56891,8.07885-9.06266,16.20956-18.08107,24.51118-26.94526q12.44433-13.30329,25.21666-26.30144c4.2211-4.36868,8.6237-8.55906,12.95442-12.82019l13.03507-12.7408c17.42033-16.92536,35.43923-33.20371,53.81963-49.10524q27.60293-23.80809,56.62657-45.99051c5.197-3.97179,8.69527-8.1827,7.72729-9.48847C2304.12121,825.08679,2299.02878,827.21165,2293.8,831.20776ZM2784.97166,1197.764a708.55119,708.55119,0,0,1,18.90353-68.90287q2.79735-8.36715,5.84893-16.55271l3.12062-8.11345,3.49306-8.774q7.1454-18.099,13.41593-36.66322a678.95582,678.95582,0,0,0,20.90884-75.75918,382.89619,382.89619,0,0,0,8.655-81.18649c.00269-3.49045-.09025-6.727-.1485-9.96088l-.14952-5.24093-.25391-5.26855c-.39938-6.95893-1.01158-13.65843-1.66823-20.09662-.31957-3.11376-.692-6.653-1.12035-10.02629-.41925-3.40462-.90012-6.80546-1.4177-10.20221q-1.577-10.188-3.73686-20.29723-2.18059-10.09655-4.94207-20.05857l-1.42141-4.96417-1.45911-4.84542-2.897-9.27363c-2.00465-6.26308-4.07832-12.5225-6.49919-19.08381a196.94462,196.94462,0,0,0-8.92-20.57543,175.84984,175.84984,0,0,0-25.71521-37.96034c-2.55825-2.88959-5.23167-5.67725-7.98423-8.37286-1.37527-1.39236-2.73067-2.60525-4.09853-3.88749l-1.02471-.95021-1.14325-.99946-2.32422-2.00288c-3.01824-2.71141-6.45372-5.17276-9.8-7.65712-1.71134-1.18791-3.47319-2.29534-5.2182-3.43093l-2.633-1.67476-2.70137-1.52209a138.13856,138.13856,0,0,0-22.21845-10.14459c-3.77289-1.27717-7.55959-2.56684-11.33855-3.51352-3.79276-1.09874-7.55286-1.86572-11.3244-2.66031-1.89352-.436-3.75034-.68193-5.62432-1.00125-1.86793-.29263-3.74865-.62533-5.60782-.87063l-5.556-.63514-2.77882-.30806-2.74751-.20335c-3.66176-.26126-7.33363-.53244-10.9267-.57965l-5.4179-.13794-5.34583.05152a36.24025,36.24025,0,0,0-9.65112,1.22407c-2.37573.67991-3.71026,1.52786-3.40617,2.36783.27747.76595,1.94706,1.37007,4.39789,1.74646a39.05114,39.05114,0,0,0,4.19382.3853c1.5524.08394,3.24993.15966,4.99023.1342a196.704,196.704,0,0,1,51.27215,5.60716,133.63435,133.63435,0,0,1,49.94538,24.20047c3.63247,2.95639,7.25787,6.113,10.27746,8.99091,3.1772,3.04929,6.31364,6.24374,9.25949,9.56756a164.44575,164.44575,0,0,1,16.08026,21.195,176.18587,176.18587,0,0,1,12.4754,23.12383c1.79013,3.95732,3.41122,7.9596,4.90907,11.98242l1.07354,2.91363,1.00013,2.824,1.92417,5.61885q1.878,5.599,3.59846,11.10981c1.16244,3.7095,2.24238,7.19473,3.419,11.16883q3.401,11.63052,5.98935,23.48634,2.57358,11.84412,4.31034,23.82973.8688,5.98521,1.52916,11.98783l.61153,5.80162.56,5.80275c.35829,3.90422.67887,7.88834.92638,11.94814.127,2.02708.226,4.08283.3125,6.14695.07813,2.03163.14211,4.268.167,6.08364l.11516,5.812.01954,6.04213c-.02694,4.02655-.10035,8.05175-.26435,12.06988a375.6911,375.6911,0,0,1-4.9542,47.81858,54.69059,54.69059,0,0,1-3.82677,13.27567c-1.49717,3.30255-3.07448,5.06772-4.29586,4.81891-2.4616-.49935-2.58721-9.23713-.83613-19.59946a363.58689,363.58689,0,0,0,5.096-60.41588,33.87483,33.87483,0,0,0-1.04155-8.85286,8.65714,8.65714,0,0,0-1.0392-2.48783c-.38827-.58324-.80415-.847-1.22777-.72114-.76744.25942-1.42948,1.752-1.87466,3.9898a32.67531,32.67531,0,0,0-.49636,3.85379c-.12393,1.44729-.19094,3.01909-.18151,4.63888a358.38842,358.38842,0,0,1-4.95184,58.64835c-.8321,4.82812-1.69652,9.65078-2.70406,14.44022-.992,4.77619-2.02957,9.47824-3.13,14.19874q-3.2954,14.13818-7.23362,28.096c-2.77243,9.84593-7.19928,17.1349-9.58276,16.38038-2.398-.75864-1.88578-9.15345.84119-18.84072q4.38946-15.60158,7.98692-31.41808c2.39931-10.52392,4.50161-21.19508,6.03919-31.92307a348.99682,348.99682,0,0,0,3.36779-64.89644c-.45461-10.9015-1.53017-21.61151-2.79027-32.38639a321.89885,321.89885,0,0,0-5.60344-32.06606c-2.37641-10.58377-5.46807-21.05348-8.7409-31.30451-1.63321-5.14782-3.324-10.28739-5.13334-15.39788-1.809-5.104-3.7803-10.25082-6.06613-15.21716a152.34819,152.34819,0,0,0-16.67192-28.29767,142.4519,142.4519,0,0,0-22.7-23.81012,103.543,103.543,0,0,0-28.61694-16.53829,132.61338,132.61338,0,0,0-31.946-7.84013c-21.75172-2.75708-43.695-1.24054-65.09218,1.53687-5.37243.70885-10.75261,1.52145-16.08261,2.531l-7.97682,1.52766-7.94012,1.69543c-10.561,2.366-21.06375,4.99242-31.44224,8.03535-6.52208,1.89644-11.27187,4.89792-10.32932,6.3753.86981,1.386,6.385.857,12.34474-.8523a450.52832,450.52832,0,0,1,58.63745-13.01495c19.83564-2.68154,39.88309-4.47071,59.68169-2.79682a146.37523,146.37523,0,0,1,29.14193,5.22753,102.8989,102.8989,0,0,1,26.75306,12.03595l3.08122,1.99267,2.94316,2.18825c2.00094,1.40728,3.83653,3.03667,5.694,4.637a132.53879,132.53879,0,0,1,10.61589,10.32112,137.93609,137.93609,0,0,1,17.52018,23.82424q3.72879,6.40884,6.83425,13.167c2.0693,4.50561,3.87593,9.10635,5.57785,13.7911,3.36543,9.40951,6.387,19.02577,9.26958,28.62524a316.41682,316.41682,0,0,1,11.3729,58.80161c1.03111,10.01316,1.86321,19.94142,1.97433,29.94381.26031,10.03218.05691,20.00881-.59132,29.99646a364.74324,364.74324,0,0,1-8.96449,59.31683c-2.204,9.74953-6.247,17.06553-8.66345,16.42643-2.43231-.64209-2.35553-8.864-.19161-18.43937a342.76734,342.76734,0,0,0,9.22682-91.81181c-.24077-7.54415-.887-15.21714-1.67261-23.02054-.39635-3.95255-.80819-7.72506-1.29647-11.53937q-.74-5.70853-1.68844-11.38229-1.90429-11.344-4.64742-22.51583-1.36836-5.58251-2.96-11.10771c-.51893-1.85151-1.07961-3.66223-1.63692-5.52667l-1.74468-5.6406c-2.34206-7.46821-4.77471-14.93811-7.42792-22.012a145.754,145.754,0,0,0-9.23659-20.07424,131.37692,131.37692,0,0,0-12.15987-18.17644,126.2169,126.2169,0,0,0-15.08517-15.78659c-10.41654-9.48546-23.16033-15.84974-37.04939-19.75042-1.75478-.4384-3.45534-1.01577-5.25221-1.3521l-5.34078-1.13782-5.43473-.87562c-1.80193-.32645-3.66615-.444-5.49568-.68012a176.35014,176.35014,0,0,0-22.41073-.98778,26.44721,26.44721,0,0,0-8.0792,1.17629c-2.00127.66177-3.11927,1.49532-2.85459,2.33794.24111.768,1.65443,1.38834,3.7207,1.78218a27.40189,27.40189,0,0,0,3.5328.41029c1.29748.09174,2.68689.17432,4.12647.15212,24.77132-.42024,48.81728,3.96572,67.18977,16.06494l1.73524,1.113c.56271.39193,1.09678.82136,1.64837,1.2276,1.08466.84534,2.22117,1.58776,3.27687,2.49964l3.17483,2.72838c1.06951.92565,2.19087,2.01956,3.287,3.01805a120.6356,120.6356,0,0,1,11.75207,13.03956,129.88106,129.88106,0,0,1,17.64209,30.70072c.57987,1.38449,1.13988,2.78047,1.65981,4.19905l.80415,2.12789.80785,2.25278q1.60527,4.51783,3.11961,9.15068,1.52142,4.62687,2.98592,9.34548l1.46181,4.73425,1.36988,4.58559a297.31986,297.31986,0,0,1,8.25161,37.12848q.73848,4.70447,1.32374,9.43678c.40309,3.1518.72266,6.28518,1.06513,9.6118.661,6.53845,1.21868,12.93135,1.52512,19.18269l.1778,4.65975.102,4.86871c.07914,3.31538.10136,6.42282.07,9.62018q-.07828,9.53737-.73646,19.07573c-.63443,9.51065-3.67018,16.92873-6.13617,16.603-2.50841-.32639-3.53852-8.03023-2.927-17.22565.47885-7.021.74387-14.0459.73007-21.06017.00639-3.44617-.0953-7.14035-.162-10.83848-.07913-3.34325-.24751-6.75814-.48626-10.24573q-.35915-5.23422-.8954-10.68076l-.55227-5.5033-.58762-5.29751q-1.2441-10.45107-3.21726-20.75672-1.97906-10.30031-4.69894-20.42793c-.90416-3.39587-1.87534-6.687-2.91521-10.11865l-3.31391-10.58415q-1.67749-5.21907-3.42638-10.26585c-.57954-1.6583-1.19006-3.39624-1.77094-4.93849-.58156-1.505-1.12271-3.035-1.75242-4.5062a126.62007,126.62007,0,0,0-8.37722-17.01269,111.13253,111.13253,0,0,0-10.66371-15.16319c-1.95346-2.37681-4.04363-4.63326-6.19005-6.83879-1.1089-1.081-2.14574-2.16856-3.36206-3.25946l-1.75276-1.62061-1.62379-1.38158a71.41462,71.41462,0,0,0-13.78735-9.36535,89.33252,89.33252,0,0,0-16.23584-6.27933c-1.46922-.36876-2.88085-.83721-4.39082-1.14889l-4.51811-.96772c-3.09772-.49851-6.15638-1.09866-9.378-1.39023-3.156-.42856-6.4416-.58864-9.69826-.82629-1.64029-.09012-3.31526-.09722-4.971-.15528l-2.49057-.07291-2.5266.02433-5.05892.05007-5.12257.23917-2.56162.11469-2.58621.20349-5.1751.40648c-7.23732.663-14.3605,1.47764-21.26344,2.511a28.90279,28.90279,0,0,0-7.24709,1.97964c-1.91574.85816-3.14587,1.79506-3.18628,2.59355-.04849.87853,1.22811,1.431,3.27484,1.617a31.56773,31.56773,0,0,0,7.67072-.33885c5.92975-.89452,12.007-1.62,18.27214-2.23974l2.35688-.22917,2.22891-.17667,4.42988-.35038c2.9536-.23768,5.84085-.28823,8.7638-.45461a160.03178,160.03178,0,0,1,32.93166,2.20143,105.7479,105.7479,0,0,1,14.42684,3.86489,77.44209,77.44209,0,0,1,12.56935,5.82548,69.9988,69.9988,0,0,1,10.8267,7.97918c.92807.8229,1.95716,1.80969,2.9317,2.70057l2.71215,2.71044c1.76151,1.84795,3.49,3.72461,5.11516,5.693a112.19466,112.19466,0,0,1,16.3611,26.40234c1.09139,2.43588,2.13463,4.91433,3.08189,7.46555l.72737,1.91924.76845,2.14208,1.512,4.3481c1.99555,5.85317,3.913,11.92612,5.82165,18.15524a282.33621,282.33621,0,0,1,8.41055,35.03547q1.53909,8.87556,2.53,17.8696l.49872,4.70892.46572,4.74819c.292,3.12744.55192,6.193.75666,9.18628.20205,2.99064.35864,5.92011.4435,8.776l.17948,9.35q.08183,9.03215-.38759,18.08756a318.25051,318.25051,0,0,1-3.9837,36.171q-.76374,4.50919-1.63658,9.009l-.91292,4.49554-.99777,4.62112q-2.01846,9.26973-4.37129,18.49135c-3.10917,12.2981-6.648,24.52431-10.53,36.67374-3.88368,12.14931-8.1499,24.21274-12.71044,36.19367-1.16851,2.99472-2.28684,5.97-3.50552,8.98605l-3.74629,9.44684c-2.636,6.73331-5.04512,13.39989-7.38819,20.11122a762.63906,762.63906,0,0,0-22.57271,80.87989c-8.25968,36.6974-9.73631,70.917-6.88778,95.698,2.85863,24.85356,9.87337,40.35815,18.8611,41.14942,9.06686.80154,18.392-13.00805,27.18914-35.30454C2768.9005,1262.58567,2777.304,1231.82484,2784.97166,1197.764Zm52.32449-368.61583q-1.84368-9.35972-4.243-18.60341c-.7863-3.08223-1.63995-6.14661-2.51886-9.20278l-1.3554-4.573-1.351-4.395c-1.8164-5.85752-3.70588-11.76323-5.75228-17.70278-1.99151-5.82519-4.36152-12.197-7.07333-18.27481a165.15185,165.15185,0,0,0-20.67852-34.6857,155.97049,155.97049,0,0,0-13.55837-15.20963c-1.20285-1.21918-2.42322-2.34092-3.64325-3.47241-1.1749-1.125-2.5266-2.28132-3.86718-3.42931-1.35237-1.13356-2.6357-2.3216-4.05475-3.39834l-4.28373-3.20435a115.5928,115.5928,0,0,0-18.33747-10.72872c-3.15968-1.59093-6.42711-2.80439-9.67064-4.11147-1.62244-.65282-3.27755-1.13275-4.91682-1.70134-1.64568-.52635-3.28293-1.1423-4.94174-1.55307a175.72617,175.72617,0,0,0-39.72516-6.30848,272.68816,272.68816,0,0,0-38.65094,1.22c-6.17995.606-12.42522,1.31358-18.70687,2.20835q-4.71073.6696-9.442,1.47909c-3.17517.5445-6.18163,1.164-9.28036,1.74428-6.62445,1.28281-11.64364,3.8072-11.29174,5.35663.36772,1.60758,5.89641,1.65973,12.42152.39675,3.05259-.57138,6.03952-1.18712,9.14634-1.71968q4.63747-.79843,9.27059-1.45217c6.17591-.87975,12.335-1.578,18.45263-2.17786a266.85916,266.85916,0,0,1,37.803-1.19879,169.89706,169.89706,0,0,1,38.36942,6.08288c1.59483.39229,3.15665.98492,4.73262,1.48821,1.56755.5447,3.156,1.00127,4.70366,1.62607,3.09367,1.2508,6.218,2.40451,9.2221,3.92212a109.72,109.72,0,0,1,17.42791,10.19389l4.06452,3.03969c1.348,1.02044,2.57071,2.15818,3.85842,3.236,1.2756,1.09236,2.561,2.18822,3.7069,3.286,1.18163,1.096,2.366,2.1832,3.52,3.35474a150.06581,150.06581,0,0,1,13.04955,14.63852,159.265,159.265,0,0,1,19.94239,33.45949c2.62594,5.88791,4.91042,12.021,6.88779,17.80322,2.01845,5.858,3.89042,11.70711,5.69571,17.52906l1.3426,4.3688,1.33183,4.49269c.86341,3.00242,1.70191,6.01271,2.4744,9.04052q2.35032,9.07451,4.16823,18.2752c1.30287,6.58455,3.43885,11.76091,5.03738,11.51547C2838.18414,841.55788,2838.62629,835.872,2837.29615,829.14815Z" transform="translate(-140.68018 -653.40576)"/></svg>